<mxfile host="app.diagrams.net" modified="2021-02-17T11:52:46.136Z" agent="5.0 (Windows NT 10.0; Win64; x64) AppleWebKit/537.36 (KHTML, like Gecko) Chrome/88.0.4324.150 Safari/537.36" etag="nRKjwzXAfNpRlfXnsZo3" version="14.2.9" type="github">
  <diagram id="D6uqkSb7xdpxSyw-rZsQ" name="Page-1">
    <mxGraphModel dx="1022" dy="412" grid="1" gridSize="10" guides="1" tooltips="1" connect="1" arrows="1" fold="1" page="1" pageScale="1" pageWidth="850" pageHeight="1100" math="0" shadow="0">
      <root>
        <mxCell id="0" />
        <mxCell id="1" parent="0" />
        <mxCell id="NUWmxPzejjJAQNzyafJl-34" value="" style="rounded=1;whiteSpace=wrap;html=1;fillColor=#E6E6E6;fontSize=13;rotation=90;" parent="1" vertex="1">
          <mxGeometry x="274.68" y="149.69" width="335.63" height="183.13" as="geometry" />
        </mxCell>
        <mxCell id="NUWmxPzejjJAQNzyafJl-1" value="" style="ellipse;whiteSpace=wrap;html=1;aspect=fixed;" parent="1" vertex="1">
          <mxGeometry x="160" y="140" width="80" height="80" as="geometry" />
        </mxCell>
        <mxCell id="NUWmxPzejjJAQNzyafJl-4" value="" style="ellipse;whiteSpace=wrap;html=1;aspect=fixed;" parent="1" vertex="1">
          <mxGeometry x="185" y="150" width="30" height="30" as="geometry" />
        </mxCell>
        <mxCell id="NUWmxPzejjJAQNzyafJl-6" value="" style="rounded=1;whiteSpace=wrap;html=1;fillColor=#67AB9F;" parent="1" vertex="1">
          <mxGeometry x="170" y="190" width="60" height="10" as="geometry" />
        </mxCell>
        <mxCell id="NUWmxPzejjJAQNzyafJl-8" value="USER" style="text;html=1;strokeColor=none;fillColor=none;align=center;verticalAlign=middle;whiteSpace=wrap;rounded=0;" parent="1" vertex="1">
          <mxGeometry x="90" y="20" width="90" height="20" as="geometry" />
        </mxCell>
        <mxCell id="NUWmxPzejjJAQNzyafJl-9" value="User" style="text;html=1;strokeColor=none;fillColor=none;align=center;verticalAlign=middle;whiteSpace=wrap;rounded=0;" parent="1" vertex="1">
          <mxGeometry x="155" y="230" width="90" height="20" as="geometry" />
        </mxCell>
        <mxCell id="NUWmxPzejjJAQNzyafJl-10" value="" style="endArrow=none;html=1;" parent="1" edge="1">
          <mxGeometry width="50" height="50" relative="1" as="geometry">
            <mxPoint x="280" y="400" as="sourcePoint" />
            <mxPoint x="280" y="210" as="targetPoint" />
            <Array as="points">
              <mxPoint x="280" y="210" />
            </Array>
          </mxGeometry>
        </mxCell>
        <mxCell id="NUWmxPzejjJAQNzyafJl-11" value="" style="endArrow=none;html=1;" parent="1" edge="1">
          <mxGeometry width="50" height="50" relative="1" as="geometry">
            <mxPoint x="280" y="180" as="sourcePoint" />
            <mxPoint x="280" y="5" as="targetPoint" />
            <Array as="points">
              <mxPoint x="280" y="5" />
            </Array>
          </mxGeometry>
        </mxCell>
        <mxCell id="NUWmxPzejjJAQNzyafJl-12" value="" style="endArrow=classic;html=1;" parent="1" edge="1">
          <mxGeometry width="50" height="50" relative="1" as="geometry">
            <mxPoint x="295" y="195" as="sourcePoint" />
            <mxPoint x="350" y="195" as="targetPoint" />
            <Array as="points">
              <mxPoint x="240" y="195" />
            </Array>
          </mxGeometry>
        </mxCell>
        <mxCell id="NUWmxPzejjJAQNzyafJl-19" value="" style="shape=image;verticalLabelPosition=bottom;labelBackgroundColor=#ffffff;verticalAlign=top;aspect=fixed;imageAspect=0;image=data:image/png,iVBORw0KGgoAAAANSUhEUgAAAgAAAAIACAYAAAD0eNT6AAAABHNCSVQICAgIfAhkiAAAAAlwSFlzAAALiQAAC4kBN8nLrQAAEI5JREFUeJzt3X+s9nVdx/HX7X0GCEoYIHeRK5CQHwLdg4pVd+Kv7mCVM6zGTBmiRKvmaBMplonGstpc4hY2cPRrCMSsmdRKYuWQWjKkcBgTEwxQBBSKH8qvuz+uc5K4b+Icrut73t/zfT8e27WxsfPZ6/7CzvW8r+91rpMAAAAAAAAAAAAAAAAAAAAAAAAAAAAAAAAAAAAAAAAAAAAAAAAAAAAAAAAAAAAAAAAAAAAAAAAAAAAAAAAAAAAAAAAAAAAAAAAAAAAAAAAAAAAAAAAAAAAAAAAAAAAAAAAAAAAAAAAAAAAAAAAAAABsbJuqB4zA3kmOTnJwkhcl2SOuCzAuO5I8luS+JLcmuTHJQ6WL2PC6PtHtn+TUJD+T5Ngkm2vnAKzJE0n+OckVSf4kyf21c9iIugXAPkneneSMJM+vnQKwEA8muSDJby//M6xKpwA4MckfJXlx8Q6AIdye5M1JPlk9hI2hy0vf70hySZIXVA8BGMg+Sd6U5MtJbijewgbQIQDOzeylsU6vdgA9PS/JTyW5O8n1xVsYuak/KZ6S5NLqEQDr7IkkJyX5u+ohjNeUA+C7k9yU5IXVQwAKfDXJkUnurR7COE35FsAlSY6pHgFQZK/M3hfw8eohjNNUXwHYGm+CAXg8yaFJvlg9hPF5XvWAgfxK9QCAEVhK8ovVIxinKb4CsHtm9772rh4CMAJ3JHlJ9QjGZ4qvAPxgPPkDrPiuJEdUj2B8phoAAHzLD1QPYHymGADfWz0AYGReVj2A8ZliAPisf4D/y/dFdjLFANizegDAyPjtp+xkigEwxT8TwDx8X2Qn/qcAgIYEAAA0JAAAoKGl6gEbxH8luad6BNDClsx+kQ8MSgCszkeSnFk9AmjhyiQnV49g+twCAICGBAAANCQAAKAhAQAADQkAAGhIAABAQwIAABoSAADQkAAAgIYEAAA0JAAAoCEBAAANCQAAaEgAAEBDAgAAGhIAANCQAACAhgQAADQkAACgIQEAAA0JAABoSAAAQEMCAAAaEgAA0JAAAICGBAAANCQAAKAhAQAADQkAAGhoqXoAAJOzZfmxI8lXktxdO4dd8QoAAIvw/Uk+nOTLy4/PJLkxswC4K8lFSY4tW8dOBAAA8zggyZVJ/iXJWzL7m//TfUeStya5PsnlSfZbt3U8IwEAwHN1dJIbkpy8hq/52eWvOXKQRayaAADguTg0yTVJvvM5fO1Llr/24IUuYk0EAABrtVtmL/vvO8cZL05yRZLNC1nEmgkAANbql5MctYBzjk1yxgLO4TkQAACsxeYkv7rA885OsmmB57FKAgCAtfjRJAcu8LzvSXL8As9jlQQAAGvxIwOcuW2AM3kWAgCAtXjpAGceMsCZPAsBAMBa7DXAmS8c4EyehQAAYC2GeMOeNwEWEAAA0JAAAICGBAAANCQAAKAhAQAADQkAAGhIAABAQwIAABoSAADQkAAAgIYEAAA0JAAAoCEBAAANCQAAaEgAAEBDAgAAGhIAANCQAACAhgQAADQkAACgIQEAAA0JAABoSAAAQEMCAAAaEgAA0JAAAICGlqoHAMDANiXZluSkJMck2T/JjiR3JrkhyceS3Fi2rogAAGDKXp/k/CSH7+LfHZfkdUnOS/KpJGcnuW79ptVyCwCAKdojyZ8l+Wh2/eT/dD+c5NrMYmHTgLtGwysAAEzN7kmuSvKqNX7dpiS/nmRLktMXPWpsvAIAwNRcmLU/+T/VW5K8c0FbRksAADAlJyY5bQHnvCfJoQs4Z7QEAABT8t4FnbNbkt9c0FmjJAAAmIqtSY5d4HlvSLLPAs8bFQEAwFRsX/B5uyV55YLPHA0BAMBUHDXAmUcPcOYoCAAApmK/Ac7cf4AzR0EAADAVmwc4c7KflyMAAKAhAQAADQkAAGhIAABAQwIAABoSAADQkAAAgIYm+/ONC/aKJBdXjwBaWORn2cMzEgCrc9jyAwAmwS0AAGhIAABAQwIAABoSAADQkAAAgIYEAAA0JAAAoCEBAAANCQAAaEgAAEBDAgAAGhIAANCQAACAhgQAADQkAACgIQEAAA0JAABoSAAAQEMCAAAaEgAA0NBS9YAN4uNJPlA9Yk4nJDl3gHNfO8CZY3RCXL95fSjJSxd85mVJPrzgM6u9K8m26hFMnwBYnTuTXF09Yk77DXTuRr8uq+X6ze/BAc68PdO7hmdWD6AHtwAAoCEBAAANCQAAaEgAAEBDAgAAGhIAANCQAACAhgQAADQkAACgIQEAAA0JAABoSAAAQEMCAAAaEgAA0JAAAICGBAAANCQAAKAhAQAADQkAAGhIAABAQwIAABoSAADQkAAAgIYEAAA0JAAAoCEBAAANCQAAaEgAAEBDAgAAGhIAANCQAACAhgQAADQkAACgIQEAAA0JAABoSAAAQEMCAAAaEgAA0JAAAICGlqoHbBB7JzmkesScDhjo3I1+XVbL9ZvfbgOcuU+mdw33qh5ADwJgdU5ZfrCzz1cP2OBcv/n8wvIDWCO3AACgIQEAAA0JAABoSAAAQEMCAAAaEgAA0JAAAICGBAAANCQAAKAhAQAADQkAAGhIAABAQwIAABoSAADQkAAAgIYEAAA0JAAAoCEBAAANCQAAaEgAAEBDS9UDNogrk5xfPWJO25O8b4Bztw5w5hi5fvO7PMmhCz7zkiQXLPjMar+X5DXVI5g+AbA69yW5sXrEnA4b6NyNfl1Wy/Wb3yMDnPnVTO8aPlA9gB7cAgCAhgQAADQkAACgIQEAAA0JAABoSAAAQEMCAAAaEgAA0JAAAICGBAAANCQAAKAhAQAADQkAAGhIAABAQwIAABoSAADQkAAAgIYEAAA0JAAAoCEBAAANCQAAaEgAAEBDAgAAGhIAANCQAACAhgQAADQkAACgIQEAAA0JAABoSAAAQEMCAAAaEgAA0JAAAICGBAAANCQAAKAhAQAADQkAAGhIAABAQwIAABpaqh6wQeyf5LjqEXM6eKBzN/p1WS3Xb37PH+DMLZneNXxR9QB6EACr89PLD3b26eoBG5zrN59Tlx/AGrkFAAANCQAAaEgAAEBDAgAAGhIAANCQAACAhgQAADQkAACgIQEAAA0JAABoSAAAQEMCAAAaEgAA0JAAAICGBAAANCQAAKAhAQAADQkAAGhIAABAQwIAABpaqh6wQVya5NzqEXP6ySQXDHDuQQOcOUau3/z+OsnhCz7zQ0l+Z8FnVvuDJCdWj2D6BMDq/HeS26pHzOmegc69baBzx8b1m9+jA5z5QKZ3DR+uHkAPbgEAQEMCAAAaEgAA0JAAAICGBAAANCQAAKAhAQAADQkAAGhIAABAQwIAABoSAADQkAAAgIYEAAA0JAAAoCEBAAANCQAAaEgAAEBDAgAAGhIAANCQAACAhgQAADQkAACgIQEAAA0JAABoSAAAQEMCAAAaEgAA0JAAAICGBAAANCQAAKAhAQAADQkAAGhIAABAQwIAABoSAADQkAAAgIYEAAA0tFQ9YIM4IsmZ1SPmdNxA527067Jart/89h3gzO/L9K7hwdUD6EEArM625Qc7u7B6wAbn+s1n+/IDWCO3AACgIQEAAA0JAABoSAAATN+O6gGMzxQD4InqAQAj83j1AMZnigFwf/UAgJHxfZGdTDEAbq8eADAyt1UPYHymGAD/Wj0AYGT+rXoA4zPFAPhk9QCAEXk0yXXVIxifKQbAfya5vnoEwEh8IslD1SMYnykGQJJcXD0AYCR8P2SXphoAf5zkruoRAMU+m+Rj1SMYp6kGwDeSnFM9AqDYWUmerB7BOE01AJLkT6N8gb7+MMnV1SMYrykHQJKcmuTm6hEA6+y6JG+vHsG4TT0A7k/y2iS3VA8BWCefTvITSb5ZPYRxm3oAJLM3A/5QZj8KAzBlVyQ5IcnXi3ewAXQIgCT5WpLtmb0k9kDxFoBFuzvJm5P8XJKHi7ewQXQJgGT26zAvSHJwkvPixwSBje+LSc5Ockhmb3yGVVuqHlDga0neneQ9md0aeHWSrZmFwb5JdkuyqWocwC7syOye/r1JvpDZp51+Ij71lDl0DIAVTya5dvkBAK10ugUAACwTAADQkAAAgIYEAAA0JAAAoCEBAAANCQAAaEgAAEBDAgAAGhIAANCQAACAhgQAADQkAACgIQEAAA0JAABoSAAAQEMCAAAaEgAA0JAAAICGBAAANLRUPYD/tTXJ9iRHJdkvyebaOQC7dNQAZz4xwJk8CwFQ78Qk701ybPUQgCKPVA/oSADU2T3JhUlOqx4CUOye6gEdCYAaeyS5KsmrqocAjMAXqgd05E2ANS6OJ3+AFTdVD+hIAKy/1yd5Y/UIgJF4OMkN1SM6EgDra1OS86tHAIzI1Ukeqx7RkQBYX9uSHF49AmBELqse0JUAWF8nVQ8AGJF7k3y0ekRXAmB9HVM9AGBEfj/JN6tHdCUA1tf+1QMARuKuJB+oHtGZAFhfO6oHAIzEWUkerB7RmQBYX3dWDwAYgY8kuaJ6RHcCYH35WVegu5uSvK16BAJgvf1V9QCAQrdn9tNQD1UPQQCst88kua56BECBW5OckOSO4h0sEwDr7+x4MyDQyz8kOT7JbbUzeCoBsP4+leR91SMA1sFjSc5L8pok9xVv4Wn8OuAa5ybZkuS06iEAA7kmyduTfLZ6CLvmFYAaO5KcnuTX4pdgANOxI8nfJnn18sOT/4gJgDo7MrsVcFSSS5M8WjsH4Dl5LLNbm+ckOSjJj2f2t39Gzi2AerckeWOSX0ryyiRHZ/aRwf7bAGP0WGb387+U5HNJbkzySOkinhNPMuNxf5K/WH4AwKDcAgCAhgQAADQkAACgIQEAAA0JAABoSAAAQEMCAAAaEgAA0JAAAICGBAAANCQAAKAhAQAADQkAAGhIAABAQwIAABpaqh7AhrElyZFJvj3J5uItALtywABn7hjgzFEQAPx/9kxyRpLTk7y8eAtAhUerBwxFAPBMTkxyUZIDq4cAFLq/esBQvAeAXTkryVXx5A/wpeoBQ/EKAE/3tiTvrx4BMBL/Xj1gKJuqBzAqRyS5Icnu1UMARuDxJN+W5OHqIUNwC4Cnen88+QOs+KdM9Mk/EQB8yxFJtlePABiRv6weMCQBwIo3VA8AGJHHk1xaPWJIAoAVx1cPABiRP0/yleoRQxIArDioegDASDyZ5LeqRwxNALDCm/8AZi5KcnP1iKEJAFZM9tOuANbgriTnVI9YDwKAFZ+rHgBQ7Ikkb0qTvxAJAFZcUz0AoNg70uh7oU8CZMU+Se5Islf1EIACv5vkndUj1pPf686KbyR5QZJt1UMA1tm7kvxG9Yj15hUAnmrPzH4XwMuqhwCsgweTvDXJ5dVDKngPAE/1cJLXJbm3egjAwP4xydY0ffJPBAA7uyXJK5L8R/UQgAF8PskpSU5IcmvtlFoCgF25ObMy/mCSx4q3AMzr8SR/k+TkJIcluax2zjh4DwDP5sAkP5/kx5K8PMl+EY7AOD2Z5JEk92T2KuZNSa5N8vdJvl64CwAAAAAAAAAAAAAAAAAAAAAAAAAAAAAAAAAAAAAAAAAAAAAAAAAAAAAAAAAAAAAAAAAAAAAAAAAAAAAAAAAAAAAAAAAAAAAAAAAAAAAAAAAAAAAAAAAAAAAAAAAAAAAAAAAAAAAAAAAAAAAAAAAAgAH8D7ZURksiLCUsAAAAAElFTkSuQmCC;" parent="1" vertex="1">
          <mxGeometry x="670" y="48" width="102" height="102" as="geometry" />
        </mxCell>
        <mxCell id="NUWmxPzejjJAQNzyafJl-20" value="" style="ellipse;whiteSpace=wrap;html=1;aspect=fixed;fillColor=#FFFFFF;" parent="1" vertex="1">
          <mxGeometry x="400" y="20" width="80" height="80" as="geometry" />
        </mxCell>
        <mxCell id="NUWmxPzejjJAQNzyafJl-17" value="" style="shape=image;verticalLabelPosition=bottom;labelBackgroundColor=#ffffff;verticalAlign=top;aspect=fixed;imageAspect=0;image=data:image/png,iVBORw0KGgoAAAANSUhEUgAAAOIAAADfCAMAAADcKv+WAAAAk1BMVEX///+ZUNeURdXVvO6hXtqSQNWYTtfw6PmXS9aWSdaTQ9Xs4feTQtXu5PicVNiQOtTHpOj28fzey/Ll1/SzguH48/y9lOX8+v7p3PakZturc979+/7St+2vet/z7PrPsuvdyPHCnObj0/TLq+q/l+W4iuLUu+6madyxfuC5jePZw/ChYNqsdN62huLJqOmmZ9yNM9O0L550AAANNElEQVR4nO1dC3eiPBMu0SBQFG/US1tv3dbWtrvv//91n8wEBUQlyUDSfj7n7DmrtcjTTOae4e7OQsRr10ngtp9M30pNGDLmINyg3TF9N3XgKXKdAzx+b/p+6LGJnCxcNzZ9R+RwcA09xjz4jz82fUfUeApg7fjzcvnNgW3UNX1PxJgltNzeNPl/t5e88Nem74kWgzBZuHCBrzrJK3dm9paoMeV7Uqyfvnzwk2WcmLwjcgyTrcgPu2+XWEj2uyhuEtHkg/Tlb6TYBUHdpS8TQXV7Jm+IHo8++KbiVScRW+/Z6B3RYwwK5hlkE40GezN9T8QYgf/mu+td6zUE088fTd+TCiaD++lodL8o0yPvPrg3PmPwH4cvG789TQxW/ee2xzkP9/9Yb75uFcKliZcJNPZi+sN24nTdiwI/w8H1fMb9h032QwvXzzDcmrpXJbzNuJ9boZSnz3svmZApnnMMMhw/+mPuduWx9IPM6gEyLBl/yAjsZs5DFnD2+pPi4Z3DBCOfhaHvtP9tZ22P8b3YCpY+f8iu5Ga3m/4kVTqYcxHohv73crNI733SXfW3PPRT8j9OeR7wFuJSMTYenv50svlgYomD9rT8CrHlC/rKcZHC9bk0zKT1icvsluqXwSwK+yXv24LHLcNUxcfFPNNmFuJKtxcnP/vaSzK3N6Uat2Gn+c7m2idb6M547OSTiavq+rbK6qAH25B/V/hs/MxRWHeFH3z7uVSAXZi0gWFUUVW+YJa4KJQToM7sTKhuQfb4qurnN6hai+v4N9nO/gPxzZHgAzRNVGIpzqGLHPko9+4EHD9+qoiMYwcCxotb6yI64Ne5UZ7OEpbRvrx4DCsia9E6EAh77fy7QNy+Es4z5ihkf22DyiW/81qJ1fTmZPdGgyGHgFA+Q7hE+c6bR0jjFLaocbRd6Y0oALmNQm4R9rVnV4C8TBKEavWICew89pJ789OVMj8NYBKWKP+qQFWcz4LDFrUqbYwFF1U1v/VOXTZ4L7QnqdpFlaFqrKe4jDnPewTL6BDcHA3msAzqxc93+P28r/rsne5QcxAGQz3+wSXLK6v7kqU1B7BiYUvjCu0SdwbqHRqiQQk0GJ9al2CnCqcDyxgMzvxKk9AyGAJQ9HcLnuoHqOkPnesS4UHNOc0DbEQh4BhA2YqbbxpDgxFqRncvIKkF/++PlrWlw5emwUCATi323MQQY/Mz2dbGgAZDW7c/RmXhU5/ZEFShwdBPeyZm48QnfQxLAq2mAdpez2Agxom8+8W0G9nl1SF2C8GfGVQLPzGCjnIYSgUwGCR9JKBS+UkbI7Q6mgyqunSW64mVK0/Y64G5EgdGGCTl6zdW7iLt0MWn+AoVDEvCdVWcW0VMcbC/FN+hAEohOrMXD39HMyUOuKui76yKMxr1Lk17GGnmEAZDooRxCeV2MQEmkyMTQdUHmcFIUOrdIMAL9l+JvkgCwmAQNeSX+6iIKek3SQAMBlkVcBSWRBopxqTyUhmUBuNOxBTBGUdN5DCbDqqwP5asOwis31mV8uobKHFgCEDmO8I6nbc/C06pvKuB1mDc3a39C1vxTlhNKhNcDWgwyMJxEfqe32wxJogaDKrQYNCd4Fpe9ZPWtBvjOtBg0GU4r+su7OJorvmR2jN+gyN+4UUDhA5xY31jvZKyrg5ghfwrjjYuY0N9Y7hz6Ep/fVTPV/xsPM0ZNhJUxQGtwViAOr2+s/EEZyN9Y8QGA12XCiXmVthUiQNLmxFZa5MolVbYZFCE9Ks0gmpiThy9wfUqqcoh8R/3HFbEBgOvV63EDCkO74vqq8+hR5wQg+tV9D43Zb1k5HghNhhLKX8ehbrmM+MebY0BI5bK6hkbdOrtG4MWA4+ubvvgy6VloEGn3qBqiqFrnyifgRkLCXOOIY5W/8s1LOArXObRfAnsLSeQ8K3hhEO9JY6emDDEtwTmCQ1GIBMhYYqj1r6xJzwRtd+Q0YO2tMoYjBSwe91ap1SMQ8HR8ZlmwaavUmKO4fvr7Rtb88Ph3/BTJ7WJ+RhpZ2WNf5hag6rBO08Pzbr8W/2rviUNhsCEVYu99LDpsaO0qqZTprIGI8Vf1khQ9cIO0sp6aj4j5L9VKgaP4GHVX+KIx9FRWt8VpHWnrv2XTfWNjT6PupVLRx64FIqJUWjGaaRv7CnMSKtkKkfoxZXSF7ea6xuLP9LBCsmcM5n934mkIowiIMXRUN/YdBamW9KTOfT27CkZjBSrRkscb97BgDBnVfGXNqoGI8Wnxk6Wx+QhI63zauuCzrxGAgj/Rs31jd1vD+6OF60rREaQHZGLMIrAFIfG0RBZ7JyjtHpXdwhmM/TEDLs4muwbe1xnpPVaKCnS33oVA1RYl6tZxOh8HaWVf1z65hFGGJoOGCbR/dfhqrVq7JjD6iitvn9BEczwML/ufWGg4gcBC6J2Y6XV/sHdccPPc6dvnjCm1W7bWxz8xySZdH2oBxEWz5lQ8rXUJghdo3CuuohedrLV6aiO2pANJcMy8UFdQ5Am3GYmj4HkN9eV8xIdvjton4gPKnuCZG8/QBuVzJdzdQTjqe2OZU9Dxd9HaY3GhfL2rGyohgLwyJgb9DuTeIcjaNT6APqR6/pMutl10w4O0hrkgt43LHrrVwwwe8cwLJ58gq/jKlxH2B6FuuySlYaSmCG82rlQARBOHbKcC+U8wAw9FpVfjV+zoWQq66hrCJKgmKDkh90HbddMXoe9CHFT65Kc/juGkhy3CcYHrqvvPN8XJhvg8UdpB+BoWxXzD2/+UVqd5BJoySiqk1jaOFZv+n5WbitjnkqaclBQCCUxX0PTOYvHxQ47CBR1KGsZW1igQX2s6gNmQ0lRKKBJDsLmO7jyKxC4SDLERkfLYe+onZX9rd0x8eGo6ueyy6Kni6mRoVw5PQVO2PW+tI9+ZULJBFRNbDh71XfWu+VWmCJJOcUclxMsRD5Qp4TQnR+k1eFUxU8MWGDKsXhMhewigml1wJHGsWzvOvez6qEf6XG6Lr1tVjb2l+5Jigf2YnnY4QJ0Q60//+OyF+3xRRgN7HJ7nLVlNwA8P8BhmDKckkwQmkxo8yyZcNFjgbzDNMwd4U124zH+2T1ksDY15QsTlcm8bs7nSwWnN0cRjmwdKgivkZ/Ff42eDzkAZ1PuQ5ZHVW8wRzHODtzp5B8p1Eh/aAlE25WGns9RHABF4XeNwjxFwm4xCYg+XZ2QJUcRfN7Ud0CKLEzgGqMo+nR1FFiOIvb2ieYRoMhWo81mM02UmhGKQ4KqTY4iSEXq8gJF0fXSNkWxrdB2VUSO4jTboTnKPI7GFMUlHqPQyw6fUkwb3i2giM1FukWRHEU85/uQeWGW4h8cGKxZFMlRhEclpUeazFPs6FbRETmK8CI9ImqeIlYWtY9R5CiugKLINRunKCb/apfbchTxIV6i5mycIjZr6B+jyFGEUTRpt5ppilgyIDh3l6P4lM3DGqb46FL1v+Uo4kxI4S0Zpoi5WIqD2jmKmE0XM3XNUhyIJgaCS+Uo/s3OSzRLceyTGIwEOYp9ayiKocYkDUU5ijAdIhA6zChFqAYSnbvLUYQBF6Hw601SVHnWw1nkKEKeJBSpNpMUsWGaaCZMjuKrJRTx9EJEUNmaxPFkl53a8Z3sgHQc9BQoYtKkWYqxcudBEd8hS5/36HqQKsX+2OUQIFK0yfvYpD/f7N9dNTDCTDQl6X/Tn0IS8QAWAFjxfTd5N6z/oQnVz/9fQ66zrDrcsO4G3y321hB8jSLF2se0DSXO/18BUvSZBNROsKncF83RDPFE+b4EcGJkvRSXZBOD0wfnSPm5kC+qlyIO0dcrVR+AFKU0c7d+iiAoxQH4qrCSYle/EJWBlRS/8OAJUSXdRooUhagMbKTYpj0EZiHFJ6q8ooB9FCfUx6Pto7gmKURlYB3FBU0hKgPrKL7T5RUFbKNIVYjKwDaKNZwatoxii9hgJLCL4mMdgxjsoojnhohnFFpFMYaeQurx/VZRxMO0AfGEIpsoUhaiMrCJ4j/CQlQGFlGsa1iIRRQxr0g/R9Meii91zV+yhmJMdSb3BNZQ/MAkew0lL1so0uYVc7CFIja4O3XUuyyhKApRtTwj3BKKKnNFpa5tnCJJg/s5WEFRNLjTFKJOYAVF0eBOU4g6gQ0U8ehZbQ/rs4His/6JqEuwgGLdc+wsoEhxIuoSzFMka3A/B+MURYN7jU/NME6RrsH9HExTxKFStT6IyDTFcS15xRwMUxzRF6JOYJjirIHxtWYp7hp4sougKOU7EfbANTIRXIzAiiSAf/lKFLv3lyCmU7Hd5Y/todXbUGfLbbcX8YsQE8fY5U/tEX1qZObqpNj2rl+nIphGfrVOiv+RMdRSumc7/C/Dq1I/+vSvX6gidFbx7vvqRihDr4q2WfSUrl2GmZb7E3cUUPHaKpcuQ01ZnRtuuOGGG2644YYbbrjhhv9n3L+1finedpgb7Ucyh71/FkJ49EdMmCKyD9Ay142uf/DnArsCe777a+HhCcDBd/vXYjy9u/sfd+nT71SZXnkAAAAASUVORK5CYII=;" parent="1" vertex="1">
          <mxGeometry x="420" y="30" width="45" height="44.4" as="geometry" />
        </mxCell>
        <mxCell id="NUWmxPzejjJAQNzyafJl-21" value="Watson Studio" style="text;html=1;strokeColor=none;fillColor=none;align=center;verticalAlign=middle;whiteSpace=wrap;rounded=0;" parent="1" vertex="1">
          <mxGeometry x="422.49" y="110" width="40" height="20" as="geometry" />
        </mxCell>
        <mxCell id="NUWmxPzejjJAQNzyafJl-22" value="" style="ellipse;whiteSpace=wrap;html=1;aspect=fixed;fillColor=#FFFFFF;" parent="1" vertex="1">
          <mxGeometry x="402.5" y="140" width="80" height="80" as="geometry" />
        </mxCell>
        <mxCell id="NUWmxPzejjJAQNzyafJl-18" value="" style="shape=image;verticalLabelPosition=bottom;labelBackgroundColor=#ffffff;verticalAlign=top;aspect=fixed;imageAspect=0;image=data:image/png,iVBORw0KGgoAAAANSUhEUgAAANEAAADyCAMAAADk3NBFAAAAwFBMVEX////zdyZOTk6enp52dndhYmJBQUFEREQ7OztLS0vj4+Pv7+9AQEDzdiPybQD7+/uwsLDDw8OYmJi6urrzchjycBHKysrz8/Pc3NzBwcHp6emjo6PQ0NBwcHBTU1NmZmb95dj+8uvY2Nj5tZGOjo6RkZF7e3v6x6z1jE//+fX96+D3oHBZWlr4r4f84dL+8ur7z7j5vZ382cb0gDb2lVz5u5v2j1P3m2gzMzP1iEH0fjD3pHjyZAD2lFv80775wqZ1Zu+8AAARRElEQVR4nO1d53rqOBBNAtgYXCg2hGJ66HAJJQTYwPu/1aoY3GRbrkC+nB97s4ktdDSj0WiEZl5e/vCHPzghXyk0Uo1yr3rvjkQDqThUr/jo3bs3EaA5VNM61I/8vTsUFikjH0hJbd67S+EwsBCCnGr37lQYlOyE0un2E0upTCIE8LRzKe9ASC3du2dB0XBglG7X7921YKg68AFCaty7b8FQcRJROj2U7t25QLAuRUYhPafaDR0JpdXKvTsXCM4iSqvle3cuENp/jB4ev28elVwY5e7duUCo/br1qO7ISE0l35tJt3Me7fqn/c94fDgcxj/7U383Wne6Ex+NOKpdO1ml65z7+/FREUVFkWVZ0AB+VODvjuP97jylaynnYO3UAXVnqvl6PoyGds/9MWIiCK8OANwgs3H/3PVuz8H5Vin3R1JhmGm15oHjLevFWBFlRyoWYrKojBdrry4RDXi7SNeh2nyeQZi3hr73iN3RVqRmY2AlbkeuoqqmCXEGytW11MrcMM/4EtNktFUUn2xurBRlP3KxFnlb6KRNGTgpzTNGtOiNyXomBqWDAebVbOncfkE1xeuG73TdKrYyZqh0BqL7uRHlMHQ0UuLm4iioekrFpFS1PaScQi9Sxop5geK16SmwtlkBtO/kaNOlZmEwHA5KNXrNKc5tlDKeLy33UYhHhyy6KZ9PDOyEWh7GobONlg/mtO9EQ0hq2xnNXW3kNGL56JxmlP6EByOC0s1dnMHJQomFD+KkLPy4fk6MrJbOndFIjo0PhCKMwjOyE3I2dp1xVPbNCYI47oSlNCQwcjgAWIgx88Gc+iEZFewTqUVcYpcbJX4+EMqmE4pR3sZoTows95MQEEZYMaWslOYE97s7TkhAGOLXvzCUVIunSphFq/hMNhmy6LV/ckO+baTUIhi6BDXuinCaVx3cFqV5xi6hyZeYNB8IcRtmuW2mW3OAVqZg/2rHdJOwxl0hbyjCEc7IN8uFGmlHtUxe464Q5Ogcch3nuL0EV0qh7AMZo/tJCFMK7+eZ8XkXm2CEeImU0M4/IS2CqogYhh9wlNU/pc87EYLxUtjz1/Fs0f8crdbLzhSg+w/+t7Ncry67/mI/FkSPuGuslGhVDnIRNj+L0XlJ4bv8W54vp5+NLCq0UcvIFG/kTQgJRtn2Vx2/btjk33LU/xJFKnGJq0gIrbwICYp4/OrTnjWQMV0tgCJ6Cks8R0Bo6boOATbiz24ZQVQAuPVrKCxXVoLSCf0xUxdlEBTl0I92NZ+sFxu3iKYghNpdAEgbp9aBdLaXSKJQVnQ+x85RdPkQsvU92TkVFHm7ikTVyOiOxk6SUvahWu6TrIIgi+NLWOF7Yro7kOeUuAvR6ppASFBe+7Eomx2dhUwSVAivtWu3CrL4Fc2aQIfJ6GCPRAtCYH3/sjamKKdOhP2lwnJvC23IQaeSxfkBtnoR++whYXqycgroDk0VMx+5H2pvHAZdKycx0Ew2rUSysovRWHujaz4JEcYB2tgZRCSLp7vJ54rp3riLDqB3Bp0TxH1C5todyx8DJ9H3lNbtnHKMPmoREGf5Ns6+7d1tCxH+zCNKTPRzHp8bi5uDGsG5VLS4HfUIR1/v9RXNZEcZrYgI19i74se/m4jaDOrE1a0wWApojvtyhk4ymkGL+HoVDjM04gp9/6aYUJIuqU/gCK9IvUhCEcnHh1iDnNA5wj6eKJ/uApkqX3d1erzRPShg60kpJCAihZb9HXESaWdSV36sVdURC/FVpNKknRJpzDxG7ES69TL6o5rY8CluKJ5a/ffAVtuK0X8U3t3hSVQOY+e99Vs+rKNAhvMXW6+I41A6Vjxdh//whz/84Q8Pj/pz3gd1QL04aGefMz8BGc1vhuWYX8WIf3t7+2P00Phj9Ph4VEZSFSDQm5iR861iSfJcq6p564BUBx8fHwNDYopipVIpWr4o3StB6J9cL96ekcrDOcdyLTVleqeAYOtrpVYs1mqwm9UyQIoFjNhCEaFmHhWp8pHOzDPtYcHWZfgqvkxaTrey35a/579Zls3qdwukb55hsh/mh8pZ+JB+g7P2DZ5B1/BTLMNxoFscx/JtA6cP9Ib1tlk+y4AXVfjjO1iKWEgIUGIQvo03IqugYZZDYPm0+e5oHXw6Pwc/9Frww61am8+iYdIZoWGzJOwqw18yertQW7jhy0tuzrzp4Hj9ok8O6hM3tzAqw8d5NLw545sIvGFAKhwiCwnBfxjTbY4q+BvXBq3x8I/RMHqHjFTwD/o8MJoshzulp09Q4W94yzWMNnoeU85q3cX9BsjqjFJZDvJoqQN1jj7DJG0JM2pm8UhEwiiHGFVhj1h2UCiWSy08Xvztk4tISOYEEfWs3nY9PRwOMUMtd6WeHqMBn2MyFTixpGYbSjNrvCWPGbUQ66x9HgVm1E5zYHgbmjUqvyFK2atUpBbqrWm2F1AzRuViSLauBgeD17vUgP/PGp6CjFSgwRw7LOZs5jAYIwYpC5go+vjk54jC/PoByI4xptvCUBPhBLihyBC0poomm/HFBvgNaxA3bDmjcmyGmA0gOCPQu4xxfOpISreuYNaq8QHGypHIaAA+jDVfJoRDweji1qxGm7xYBWOEzS5v7ksxa7JvyDYYNz9I6XijHpIY1aFOtcyfD22roY+Y0ZvDqh6IUR21yVpvZWIOV1VAtsH4DFRLs60gMWqwVmUFAJMSrhZGRrZnImDEWQcJdfDWFrINhtHOZW32nMQI8matxmIIGN3u6SLtfWOdHKTgWmcYNA3VN9OvsW24UYCDb1lzCYyghTdZD4QP8C5/pYlnaNqBUAgZ2ZROM2YZ81M3NYOLj+UdAqMaA+1JPWdCHchIFy9iZO1iSEZIRow980gJ/r51U8Y0sueadiC/KGtWJwIjJFiOsYAzfl6OMXc5CkZo9Bl7Jjlkzbhbryu8YQYjpbOoCoHREHtGBDCmdYFxTLUTQkZ2RsgTNUxrZBtU/WfeIlYCI5WWkWNumkhlVDbLCMlFe+8dznhrWgEnRlyWgO84GTnJCDEwrHwGCwLnB2vZdpEYQfvBDat5Aq7DEYiRdcdHKaMP1ujZveBZgSy2BJeZrDXrjyMjp94GYYQWZMsuwIGRfW62OYsrhwIJ0ItAOypbJiIHrTM1EREjS5MNktbZ1yO0wpo1FnkAJax0dr+FwAgtADZvJBSjub7PvAGZVKuM7LqBO2hSRmSz3zSfzhZIITAqunc3CKOhyd3EzyCLylp9b1sPsadqsmd55G+/I9/GnvEQWXvz2UTV7MBHwahhN3YfePNgiG5h39tiPyqoKUu/4QCxBTgRs/bsVziS0rS98MY4egQBGPV41FvDwFW0EIXOSNsfZU0KVm1ZdBM3B6WTVjnbnge1zL/Z/Jl35FkTDGlgRlqAQN8g1lgcQrDJCDxlGN5qhiOISJtBHHnY8yQVG6DGre5FCEbaMsnNm4jT+5AH9DjztNHmEYw6Xa1S5Q0HIm27lsKVPcl+oYYt2ouH9I0fGtSkWjPkuvXNSMLBN46fDwfDDIyc8XULI83WQTeAG9R6vUqjjUN3jH2uYLNCEB5EGat4ptRIDW68cjiOxzHpQrPXa1YKHyrLGOyHB6O6jdFt3nA4RsiB6QKHzTC1sBfUTKGYHMMzjDYILCnB1QCHvYhZAqWM9iKAvgbmcEQV/JpneB7HNw3ruQcjtFe2LJblrMEBZtmKtluze0Ep44MckyH2GvkNTm5A8/vagnHjmk8bG0ZgdBl7MHpH5sYScm/OeU3yLDOE+q/yLPutr1E3T9XwIE9KNYToo/iCk+1qthitAZMtrM159sYVNM6qOoPcN8/z3477o6Y1YqO1OGgBB55tp/CwV8rlsuHUw+CpVgZz+GBmUHGKZEDTYHfpbpAKaTBuXGZg6WLlAzTMw21ESy0VjauwVIFwPHXC8RtSpEjKV506ad5NSFW3gytkuhxDUfgRh5MvqZ7L+U+XjMOCPhMSO+0miB/A2COKsQI5HazPQ0enHR8BKLjGJ1m4qOW9w7KDXkZS2xq9jxsV97iKA+hlBFdh/QgmAaDNMty/+AOtjKS0OQgZP+poyebdXHciKGVUbyNvqZVUMT0p94GdMf9aTiUjqaCd/FJmsQ6LZnvOYA+at35fwBsUMqo2WvjYLEubxjos3jXPiZ0HqHdAIaN8VnOgE6tKkkdHFmw2FeQ7lTTzCAUdWC654o3SG8Oz7UawSYt9RXd1As4Iyw+S/A5qudwMXNxOqkO49/b9OztIyCYkBUdn/A9BcJfcLGHg2eHzw6SXoANFf187cXciSixfvZ/pKw99odyMKc3V3a4oPA2lDt3N8pMidOLuSjToyHT33zuiID7FBca1IlDmdvoRBCWKDJIx4ywK8pbu0aX4Kjz+ZXmYwIVal8bC66s4i7U/oQFTnQg/tE+j1ILK+IHdh38HmP7Hx3T/gXlRZPlhJ9MZJT+knUUQSxEnqHrQ3CAnnANJ7Ph4R0s6GrYoRyzoaHmqqDPRIFxzvQnKw2U86V/Td/rM99a/plVTNg/ljK9vNWN8pd2CuCVnBbPpYVIHTU63ZG/Cxm+vznqiTlmJNkV9YBirSAVIE2vISCyImwcw5OeDIQFukJSqE2MCXUE83Nl5XY6NiS2F1yAzwZxMXhC3d+S03JvLXQTM2zYzZ2UFcrqT2VuPLcmJ5YBO58SauFkQx3eYT+cvazmSYDoHYU+GLYjKLlEHtrsT7OVVQmxI+/YKW4KizBJTvuWMlOA7VMryH1JSeVlMJGf5dHckVpkMnAsbYXIkJqsXZPEr3rzy3dGXQ/Z/4RjOhek4FRUQFHEcTykDIJ2LY95/8LlhP9SlIgggFXW5CYBl36U2QyRVQVzL0AiyIm8vnYhcWalz2QruBZsjKUZzcq/bIgBRvc4+aarpuOHf8jI7AjbulVsiSlo786ySCCvryJvZJVj9lslydKIrGhRZCtEtVeFHVMnpuF1cllPKNKfd6fKy2B5F2gpIIcuBGGEr0+BMCxVCEo6H/eKyWgNutvNKCfBYry6L/eEI9NVPlSrFR+zHEz/+ynMKsIiYVjlMfj1uDofx19f4cNgcwfKMi4nBUmL+aolFSghIKXjFUcGEwM1ETAhsaRMtokogFH3U2sOIx4xYgqHEykFJEYonbHi3QpDxJU9f0hbOixayEF+EY3q4g31QDrFWWJklPZniPyBJeDIlkZp7mmR574QOGhdJiSm57PadZAyEcugkROgFrraxl8WWQwWx/GO6jVf1BHGb+FH9+RhfcWxBOd7leOdTiGc6gWbvdQQ36bsHbgLyuWtZuUlfiJYTrJp552PfySfh8CAwH/H18xGOsVdj6mrWrnQSrgLqis5JDikoQRDlRSeJvubfm81mL+f9nfrVVrbVCKUGjDWfE/jevtQrp0oaCs7XaK/orvaKd31uu3RkUdmvkigyKVVSpZQOQMr7tsjkfDoqPiaVICvK8bROxhi8N4x8MCmqK17T0engXSIexV7Fw2mV2DexizY+kBLtHaXJ+nO2QTFgS+gUBVtRHHkzuyQkG4wCiRDk5OOe0mS6HPVP+/HhiCPDMGJ8PIz3p/5oOU161Sk7EAIIcJNsAtHton+i7ysVas6EUvZsgk+AnAuhVCnJm+4RQWq4EAKUHi9PuheabiIC8H1R++5w5/OEQnr3EFEq9WwzqexF6OnMnbtdQGoX+DrwXVD1JJQqPdf947rnNEqVEszsEQG8DUMqlVSahWjQo2D0XMbu98mIZh4llgsjEuS9RfRktu73rUe/0Gdw3R0hPJdheKHwvZ9M6bz3R64Z9R4Sv28P6xFneK7FSMOviwU5ByABoaTStUUNR0rPSshB8UqFZ87N1EvZzyae0igYUDSfH6XKz6txV0i9wvWIr9RoPj8fjPp7s9Ls/a76x0+H/wEsv5D9rudfBAAAAABJRU5ErkJggg==;" parent="1" vertex="1">
          <mxGeometry x="420" y="155" width="44.78" height="51.85" as="geometry" />
        </mxCell>
        <mxCell id="NUWmxPzejjJAQNzyafJl-23" value="JUPYTER&amp;nbsp;" style="text;html=1;strokeColor=none;fillColor=none;align=center;verticalAlign=middle;whiteSpace=wrap;rounded=0;" parent="1" vertex="1">
          <mxGeometry x="380" y="221.57" width="140" height="20" as="geometry" />
        </mxCell>
        <mxCell id="NUWmxPzejjJAQNzyafJl-24" value="" style="endArrow=none;html=1;" parent="1" edge="1">
          <mxGeometry width="50" height="50" relative="1" as="geometry">
            <mxPoint x="590" y="140" as="sourcePoint" />
            <mxPoint x="590" y="12.5" as="targetPoint" />
            <Array as="points">
              <mxPoint x="590" y="12.5" />
            </Array>
          </mxGeometry>
        </mxCell>
        <mxCell id="NUWmxPzejjJAQNzyafJl-25" value="" style="endArrow=none;html=1;" parent="1" edge="1">
          <mxGeometry width="50" height="50" relative="1" as="geometry">
            <mxPoint x="590" y="407.5" as="sourcePoint" />
            <mxPoint x="590" y="280" as="targetPoint" />
            <Array as="points" />
          </mxGeometry>
        </mxCell>
        <mxCell id="NUWmxPzejjJAQNzyafJl-26" value="DATA.GOV.SG" style="text;html=1;strokeColor=none;fillColor=none;align=center;verticalAlign=middle;whiteSpace=wrap;rounded=0;fontStyle=1;fontSize=13;" parent="1" vertex="1">
          <mxGeometry x="681" y="155" width="80" height="20" as="geometry" />
        </mxCell>
        <mxCell id="NUWmxPzejjJAQNzyafJl-29" value="" style="endArrow=classic;html=1;fontSize=13;" parent="1" edge="1">
          <mxGeometry width="50" height="50" relative="1" as="geometry">
            <mxPoint x="720" y="175" as="sourcePoint" />
            <mxPoint x="720" y="210" as="targetPoint" />
          </mxGeometry>
        </mxCell>
        <mxCell id="NUWmxPzejjJAQNzyafJl-36" value="" style="endArrow=classic;html=1;fontSize=13;" parent="1" edge="1">
          <mxGeometry width="50" height="50" relative="1" as="geometry">
            <mxPoint x="600" y="200" as="sourcePoint" />
            <mxPoint x="540" y="200" as="targetPoint" />
          </mxGeometry>
        </mxCell>
        <mxCell id="NUWmxPzejjJAQNzyafJl-37" value="" style="endArrow=none;html=1;fontSize=13;" parent="1" edge="1">
          <mxGeometry width="50" height="50" relative="1" as="geometry">
            <mxPoint x="600" y="268.95" as="sourcePoint" />
            <mxPoint x="600" y="198.95" as="targetPoint" />
          </mxGeometry>
        </mxCell>
        <mxCell id="NUWmxPzejjJAQNzyafJl-38" value="" style="endArrow=none;html=1;fontSize=13;" parent="1" edge="1">
          <mxGeometry width="50" height="50" relative="1" as="geometry">
            <mxPoint x="601" y="268.95" as="sourcePoint" />
            <mxPoint x="650" y="269" as="targetPoint" />
            <Array as="points">
              <mxPoint x="630" y="269" />
            </Array>
          </mxGeometry>
        </mxCell>
        <mxCell id="NUWmxPzejjJAQNzyafJl-39" value="" style="shape=image;verticalLabelPosition=bottom;labelBackgroundColor=#ffffff;verticalAlign=top;aspect=fixed;imageAspect=0;image=data:image/png,iVBORw0KGgoAAAANSUhEUgAAAggAAACpCAYAAABOI8UBAAAgAElEQVR4XuzdCbi9VVU/8NeytFILh5xywiFFxRkRBAQEFE0ChUQTHFBTMzXNAdScKg1QEsEwzQFEHEAERSZBxYFEHBCcoDI1Ta0sNbOy/D+f/Wfd52X7nnve6Zz3nJ97P8997r3nvMPea6/hu9bee62r/eQnP/nJ//7v/1b/+q//Wl33utetfv7nf75at/aP//iP1U1vetN163bq73/+539Wv/RLv7SWfdfpr33ta9XNbnaztez/f/3Xf1XXuMY11rLvOv0P//AP1S1ucYu17P///M//VL/wC7+wln3X6b//+7+vbnWrW61l/+n7q13tatXP/dzPrWX//+7v/q7aeuut17LvP/nJTyr0v/rVr74W/b8agMBI6fC6CmwBCNPxWgEI09G+AITpaF8AwnS0LwBhebRPAOGHP/xh9cu//MvLe+vIbyoAYWSCdnhcAQgdiDXypQUgjEzQDo8rAKEDsUa+tACEkQm6yeMKQFgerRvfVJYYppuAssQwHe3LEsN0tC9LDNPRfi2XGEoEYTqGKQBhOtoXgDAd7QtAmI72OUD49re/XTFcN7zhDafrVIc31yMIxvKVr3wl3W1PhT05Q/dWfP/736/83OQmN7lKr7xL1M7eE3s4+rQCEPpQbeA9ZYlhIAEH3F6WGAYQb+CtZYlhIAEH3L4lLTG84hWvqP7jP/6jeslLXjKAIsu7tQ4Qvvvd71YHHHBAdeMb37j68Y9/nDbb//Vf//VPGfcuvfvYxz5WXXDBBdVznvOcq9wGNLzsZS9LdOq7ubkAhC4zMdK1BSCMRMgejykAoQfRRrqlAISRCNnjMVsyQOApv/SlL62++tWvVre73e2qP/zDP6ze+ta3Vh/5yEfSKbenPOUp1WWXXVadd955yVs/5JBDql/7tV+rXv3qV1f//d//nQz2/e9//x5UbXdLE0A45phjqpvf/ObVb/3Wb1UvfvGLq2te85rV61//+ur//u//qsc+9rHVv//7v1fve9/7qh/84Aepr8YIFD3zmc+sRFCOP/74BDDucY97VNtss031wQ9+sLrNbW6TxvnP//zP1Q1ucIPqec97XvXc5z63etWrXlU97WlPS/v2gIY/+IM/SJv8ff6Lv/iL6Z3od73rXe+nBlQAQrs5HvWqAhBGJWenhxWA0Ilco15cAMKo5Oz0sC0ZIFx00UXVH//xH1dPeMITqre85S3JGDLKliBOPfXU6vrXv351xRVXJPDgs7vd7W7Vu9/97mQwf+M3fiNd8573vCcZy0W0JoCgH4w+g+39v/u7v1vd5z73ScDg61//erXHHntU733ve6sXvvCF1ZOf/ORK1OR1r3tdtcsuuyTj75of/ehH6ZqDDjoo/b7Tne6Uxm38v//7v18dd9xx6V5jfchDHlL9+Z//eQJOlhwuv/zy9BtAcc2b3/zmxiWbAhAWwRFznlkAwgREv/KVBSBMR/sCEKaj/ZYIEHjeGgPLeDJ2dOuuu+6ajON2222X8p7I27LPPvtUn/rUpypgAlD48pe/XP36r/96yoniGqH4vmH4ebPaBBAYa5EBoOa1r31t8vTvcpe7VL/yK7+SQIOowIc+9KFk1Pfbb7/qxBNPTCBh2223rb74xS+maxj4D3zgA1cBCEDDoYceWu21117VUUcdlSIOARDe+c53Jjqhx+c+97lqhx12qPbdd9/qwAMPrN74xjcWgDBvIpf1fQEIy6L0T7+nAITpaF8AwnS035IAAqN5zjnnbBCTgX32s59d3eEOd0iG/7DDDkue90477VR9/OMfT0npLC0I49sDcMc73jGt+TOYN7rRjVKo/jWvec3gzYKzZrcJIBx77LHVbW972+pBD3pQ9bjHPS559Ay/duc73zkBl1kAAcgxHpuWLascfPDBGxGEeQDhr/7qrxIdRBssc4ia/Mu//EuKvDRt+iwRhAlktgCECYheIgjTEf3KNxeAMN0UbEkAYRYVgX+G374DxvPf/u3frmL0rM37bquttkqPaLpmETPUNg+CPQb2RET/ZvXFnoF/+qd/GrSx0cbIb33rW9XDH/7wtMTwtre9LUU08lYAwiI4oiwxTEDVdq8sEYR2dFrEVQUgLIKq7Z75swAQ2lFi+Ve1BQjL7JlUAX/5l3+ZNjQ+61nPSmULmloBCMuclSvfVSIIExC9RBCmI3qJIExO+wIQppuCVQQIbalRAEJbSo14XQEIIxKz46NKBKEjwUa8vEQQRiRmx0cVgNCRYCNeXgDCiMSc86i1SrXsGIv1oryo1DoABMgxsibWs3CtSybFWbRfB4CA9jYb2UxUp/26ZFKcRft1AAhBezva6xnu1iWTItr7yY/srQNAmEX7dUm1PIv26wIQ6Bx8U+f7dYkgoL3NpmsDEBD2O9/5TkoJ6txqnejrABAYI5tYnCGuF8ZaB4CA5tbWMI2jTHXarwNAsFHJJiSJSxx7ipYDBNe8/e1vT9nYJExx1tluaMeYnO/u0v72b/82KYcxSmGjPWHF9/Vy7DlAOPvssytZ4K5znetUD33oQ1OfHUVzTn2q8rJoj+9tFLvWta61QcIcIEhig2bRJNt5xzvekc6fD0md67hZ0KPL/MW1dqQbA76v034dAAIa4+mc9k0AwfG+D3/4w9Wv/uqvVg972MNS0qGpGzkkoznt6wDB2r+ESI4Wko9VaWiP79Hz2te+9ka3coAgIdMll1ySvqcv9txzz16lrJ1CIeOOpI7RnE5hm9YGIOjsN7/5zTR2x0cY2fAGVx0giHrI1mVXLWOj/6Fs1gEgQMJoj7kJKyMbtF91gID2gKUMaiIIaB/GMgcIz3jGM9I19773vdNZ6j/5kz9JGdYoy8c//vFp/jQGx70U2C1vecv0PPOIDykpgv6iF70o0cozhxg470F74/BsRjZoXwcIlOYTn/jEZFA/+clPpsQvzm/7X4Y358C/8Y1vpEiKfPXm0nNF4zyTEaQU7Fp3jfc6smZ+Aas+1V4D1DtjntM+BwjoxegCM9qDH/zg6klPelL1/ve/P9HdHBo/heu5+gU0GYtnmQt0xpuhkH3+27/92+l7wM84KW3XeAYZ9FzH9sglHkETfQXs0ATN0B6w99yg/aoDhAD13/ve91I+AnMZfJ8DBOBMnoMHPOABafyf/vSn01l/DY8ZN7lBY7RwmsHz/NYAUUDEewAqMuG4IDlBN3TEj+hPJnyHp0Jvm4+gvc19vsOD+Bjf3frWt07PCtrPyqQoH0M0/KGv5hFf6J+kSXjIO/CB/40LT+F39wBTTRkQuxhdtEcHz0cT74iodw4Qjj766OoTn/hEyjwJzH/hC19IGR/DodRfYydD5sZcSCuNPvrruWTAUVXvevrTn54+r4+9S99da768K/HJOpR71lETiihaMHwY2VUHCFCu/mMOTE5oQtGvOkDAaPqun0H7upFddYCg35RD0J7wh6LPAYJUqiIGEqlIeoLPfu/3fi/9ZmgcXfK37/1tHjW7lx/zmMckw0KQncOmcAmv4091z7mLsOa0Bzzqir4OEBgsKXAlhxH5cDbd2XWpYqWMlTHOOXV9pNCf+tSnphS0lLP+vulNb0r9ZCgZ55NOOin1XeIXKXS33nrrLl1P15JXtDcOfE8xh6JvAgjmyhl049SPRz/60anP+klxAzDO1zu3HpEBylLSnj/90z9Nc+P8PoCnuUY6YHrid37nd6rf/M3fTDTyfF6yOXQ/hWiM5lofFf95+ctfnhQ72Q3vrk77VQcIdWCJ9ujHEPo7BwiS/zAyUgajxYUXXljtuOOOCRSbO3RneC6++OLqox/9aOITfO6Z5hetAGqRLg2P4X16+YQTTkjfewaDeeSRRyYgSw492zP+7M/+LH1GLj3vXe96V+oL/gFK9E8OhjCy8wCCd55xxhlpLGQVwJC4KZI4eb7PjZnjRladPMAn+jzriGJbAUB74wg6O+7oB+2bAIKslN6Pvm94wxuS7JFJ4Ag4fuUrX5nAMuAlLwWnha7S0Acv08P4GqCoj/0Rj3hE226n6wLUA2zaWgAEjBTgIEZLGawLQKAMMWswCCRvMv2/DgBhM9qvOkDYjPY5QDBOWeROO+20pOwoJgaGgZU0RpEW30P9kL7PfO/cs4xqvADegDAfBM4bp2T7tnl8XwcIxklxStAiqxtlS/FZauA9i2QAMRK6MJbCsgyi8cigR1ECFWeddVYyopK+AA2MtLS5fbLibUb7JoDAg2KgKTkGybuFjoE2RgT9AYwzzzwzZcEDhmT7AyAYqFNOOWUDjIkuAEoy63kugwYUMUSWLoxbdEI6Xgl0vA8gEGb3HLQCPCjMJp2z6gBhM9rnAIExlkyoDgjoKIZHymH04M0DU+RCtAdt0ZGheuADH5iMkiRF5s48uQ+fWSoCNIXOL7300gRIJTAyF/jNfPhRHOkv/uIvUiIm8vbIRz4yyZFrRQZkRgx9vxlAINPmDaAQPXE/kGleAUu/AQT5CgA+vz3Xu3feeef0PYDMQPdteE8/IuIhgkF+ZgEEtEMXYFR/ADlyfN/73jeBNWOxfOgZxoaugIzlCdEGy6HxrvPPP/8qYye7XVrsWwm+XxuAwIsNNA+hmtx1AQgMj1BleLH1UPE6AITNaL/qAIGgRpg4ojezIgi81/333z8pOgZVOJTXA7lToJA8ZUmZQO68VYZGilYGjCL6m7/5mxRZoIR4SUL8fVt9aSqiN7MiCPohfazc8F/60peS4uYJAQg8kj/6oz9Kf1PKDAGAwCsRShaepMQU5aGsKEpeH4WOHgxwnwYUU2QRQUCPzSIIPERZ+zT3AQgUtfVVnpXqemjNsKPr7rvvnuYK0BEtQINo5ociBdLMu+cxMuaQUkUrSheI8nzXyIrH+wT49t5772SgwpMC6BnICNOvA0Aw5gADgNesCIKojEJMaGh5QaEhvCx6BATgZftD8DWP1jwACD7HZ9IQ4xuAgqesjkMAhEc96lEJvLkW0CNPvHnzDAiYY2DBnIjEqaEAoAKtrjMGhlEthaB9E0AA2gGJWFYio3iNgbW84Tl4RmEp4JecSh3NCcBHgD2ZAFAAReC/b9OHOu1FSTaLIOgfebMXgZzqJ5k1HyI2IgmcATQQEcDvaCp7JBlHF/zrh8OCFnScsYt8dmn1pam1iSDoaCh6A6Ak62uiq77EQEFC3rwY/a5vull1gID29bXYfP/HqgMEtLceyJvI93/kEQTCyDON9f5QnIwKwYTGAQTetpCg+eTFCuX7YVAZQeFqXq6oAkVLUfVtoWz0Kd//UY8gmCOe3Wc+85n0KooZIODBkRnK1veu45UDARQNgMDjYRSFge0BMJbPf/7zCTBQ7PVNVl3GUV+LzWmfRxAYBADBvgkNqAPYTj/99ATErFtbGjn88MPTEgAARzHy9H0OoNUBAiMndCsKQnGKJDBwn/3sZzfWeI3fOjrDYj79rw8M0r3uda/k2eoHI5vv/1h1gID2QJLx5Q5VHkEgB3ic92n8jD7vVe0Bn9FZ6IsX5gEEQOQFL3jBBkAQTWC0yIN+kAnAzTxLjWyOgQOgQlQOjwMKjB8Apz/e7dqmPQjGB8RGY4gBQe/F1+bVeI3Pd3QBnscPZAFvAxPeBxzgKd47fu3b0J4s6Vu+LNi0xMB+AQj0isjJySefnEAaQAXg0knGQ97pHE6AAlJhOyyh6C++JddkKcbeZ9Mi2RQBXbtTDBjeZBP0dTvFEDuK9b3OfOsAEILhMUxO+1UHCIQ8aJ9vtms65miMIj71jZg+E62qH5FEE3OXn0ipH+dz3xinB/C9MeSnd5qOOYqyxRJWKDgyo/+zjo3FdcGLDCtAoQkPD9lkiQaxk75+gqTrMcc4php9BZiMJz/y3FWpoxd5NLf66rn1I40Ufeykr9Nh1QECOhiP6B/DWKf9rGOOxolP6jzbdFSvK43DwTNXm/FSrgsZTGOob+r2rDbHHHNeN44I83tGyG/Mvc/ya/qMM+4J2ova1PcgdTnmiB5xNDv66380jGOITUt/8+S8zbhEesjGWiwx1BUdQuVKd9UjCNF/Ahh7D3Kl3GbSprwG0zXRfh0AQiionPbrkgeB0fKT8/2i8iBQDLx0nkmfvQc5nzbxfVeAMBXvz6L9OgCEWXy/LnkQZoHANgBhKn6pv1eEgsyuYx6EoP1aAYRZk74uAKGp/+sQQdhM2NYFIDSNYV0Awiz6LwogLEO5rgtAmEWLdQEITf1fF4Awi/brAhCa+t8lgrAMOZz3jgIQ5lFowd8XgLBgAm/y+AIQpqN9AQjT0b4AhOlov0UABKERA4mQrPUUTNU13DgrRezY01OPIFA8wiPRhHeGrlOO3d/683KAkPdf39E/T/Xa1KeYt2WOvR5BwDP6oFnTjT43hZhnoWv3d+WzvvOTAwS0129hQTzUlu593z/0vnoEYRbth75jUfc3AYTYxGssNsNZN++6h8OpA+vK9ayHixhDPYJQp33wfl1/znt/yHzwffyfL4nlz2kKYbsmbS672tVm0mDRAIHsGIM2b9/BPNo0fZ9HELwr9g+Ezolj5X11P17ER135b954coAQttV9TfNtbHi5yz6g2Edlf5TTKfKCGAeZ6rphujGC4BiUNUg7O+0edezEpDhe1KY5nmEXrPPHjlrI5LbIVgcIdmPbZBVHCiXDcHxpVVsOEJxJtps3NsQ9//nPT8lhHDfKmx3BdqmaI+2ggw66SlIgR/MkJllkqwOE2IWLmdH/rne9a9oRLymJs/jz6rLHznW7l+sbAhfV/xwgOL7ltAl+kWDITuImui+qP12fWwcI+u10QtDe7mdyuAw6du2363OAQCHrvyNojnmF4mzDN/X3O0FiI23XBDFdx1AHCHbGO78etHYcEi+TvW233fYqj7Y73GkLR0yjGa+jqY6s2UgrtwPetJt9M4XuNIAd+5F9Mp7nhIAjhLOOp44NENgJxx4jHbmcBnbdx9E7fWzaTe9ECV2Hdl1aDhDwufwdTg3gFxsDnd653/3ul07n9Gn0rhwZjtGO2ZpOMTipg1bAjLHUU0Y7hSHJGZ5o28gAQCCpEvp6rvE4DeIUVhfwvClAcATFxDqr6oUAggFSmtA94jkfy0ATCMcPGWSKFmphECRtkejB9VJ5LqLVAQKURAAcfXHchvA4suUImmNfmMj/+uKsLiZg2JxFjTS0gI1kGZEpbxF9jmc2AQRnvSNRB/qaWDQ/99xzE3ADvkyyY2i77bZbOvKl8Z7MA0DnHsdkKF07Uh1X4qEYE8ZxdtnfDIvEQI7HUCpdWxNAoDD0xXGpyFpGcCFa/+MTZ481tPbjzDWliOcABMei7F6++93v3rVLra9vAgj64oggvgmAgIcBXUCM0sE3aCXxCkPk7LzMcz6Tulf/b3/726cEJotsTQDBGWi7ph3/c9YcrzhqSSYkWcE/5gZfOeutj3hGLn7H/cj39ttvn2o6uIby7uuFbTb2HCDIc0AGGVeGg3F1Zt3843NK1JE08k23mA+78xlcMoy/6SqnDhwLMyeLbE0AwVE6+g9Iw8/GYKOnY3Xk1Zn0N7/5zSlngMRMZFcLgOCIm4RCZEADEMis347/ScRlfuhhuspZeTLGEaD4ybNndgUIcgLon6RC+EUuBLvl6UhAzfsBTjoCzwMt+EO2UcDOEUVji6RgARAAHjqL0WO0yDNdg5/oZ0dWGTAAwvONS7ZDfdis5QDBs/TB8UT6CA3ludBvRyzRUDInkQ16BZ/JKWAcxup77+dYOk4L7NAN8jOYuy7e+zyeawII5NgRZLLrqCUnkS5BY/MuD4sfx6xFRuSbQEPfu1d/66dU0AN4JFOcM3JD7j3b6ST80rbNBAhx7MfLeFQMGcVIIWJCRoaAUiqUf3QIIxgsZsZ00DI0RzAwB8YbuzVtUsTc0q/6TmpK3jXDZRKgdwgXgJCYAxNJjOI655/j7DAju+jWBBAcC8MYEHmMA0hz5EwiDcJAuPQfsqxn/Qov3LXQJy9CCk8GAjDyTLnnKVj0kSjEeW9ngSXfwIhdWhNAIOQUGMakJCOCALhQ4vphfAyR9zIEUfvA+CgieQsw8yKXG5oAAgGkKBglfcK3lJ++HHHEEQmMOWfMsDJOAAHgSRnyftGTjDDKjADgsKjWBBAoQuMSWmRAAAUKBcgRMo0EKvhdnylAsmsMFDsPllFmxIA4gI6y7VOLoQtAYNToEomcABteFCCJ1iKQjuv5jiGU2EluBDLNCLgWT7vGvQxV22hn37lpAghkB7+iJ/2C9/WdLmTU6FQgEz3pyPD8AQRAnYHndEneBAgZG11FHuhbOQaAOoZQzgayQ4ZdL0NmnJvnEHSJIKA9PtY32fnoDEmDPBf9yan8GujvyC19gl+AMN+rWQJU0/NaAAT5DYTNAR96Cr95Nt4SWWGwPZecoIf7jZk+YORntTpAiIRaDD9HD7hihPWLXZIinE4EBtBOH/AIJ5asmqMAyuwbviLrbAHbR6b7pBmf1fcmgIAGkb6dnDlFJCrFiSPjnBLzwkknw4y9JE9BB04NfR+NzTB3xkKPmje2INK/R66RNrw/EyBAWBgRCLjnPe+ZQjgQDLQiUQPvAlI3qRAoovJQTArlihEoUCiHkBgsRLOIKmGbAQRMKpIh1KR/ElJA+hQl4pkwigVjYggAh4GgiCTsWHRrAgj6RtHH+VlKwA9m1V/hb4ZLsgwolwKJFgDB94wEwfEZhodMGWAIkoGQLAS6NyfmijHpmnmrCSAQToqSd4MZ9Z1g8kYZHB4i3orkJxjZHDBsAXYoFaBoka0JIPD8KUFJkwgkuhkPhY3nKRUGCu/zpiIDnflisIyLF+kZ6AzELao1AQTgBDjD9wCCREEAGc+aN8uYAsB4wXzgc3Putx9eZGRAFKrFFxQLz37MlkcQ8DKPFP0pSJ4rx4SBwfP4AZ+jM/oLmXI4GBPRPsCXwbQcx0DLjrjI1gQQGG1eMuPMYDI++AP98YPIoPkB8MlBNACBkRIlcT8dS/cAmXSS32SeEeDpGitQb5xkh5wB5WjKwAASXQECI0jPc4oAGBEQTgj9Qj/gKaA+KkMCygFmXMPASxqWAwROojGYJ8soQAwwZPmR4RL5YdSNAcDCm3iUI9cGIAC+IhD4XdNncx+ZHfWXc8TDZgMAH30SUcZzdGqkVhcxpIfICZk3V8DPkKyK+RiaAAJAhR4AMVrpJ0eKDUVnETO2k7PNwQbm8FDst9FnshuRPrbbuMg8/hPlETXxHNkaN6Nt3t+ZAAHig0woQRm1KBQIC+PwuhlRBhYKdg3EHAABWoFoKRgTwSBDhCaH8hy7bQYQIG/ghvFjqBhEIAZDATL6RvkRPooS8SAzQjkVQIiiMugEXeo3YwpMEEogh+JnrEQ8/G4CCJQsg0s4MBAlC7kTREsWhACjQdOUE6XTFcA1AQR0FJbjnVI4hB/N9cWSB4VJmVFI+sHj450DmRSeH4oe/cc2THXemwUQKGh9ZZwAHKAKzc2DKAglpL+AMQCMrxkuStI1ZEXuemuHvK9FtSaAoC+8af3Rd8aUPAKKxhPpoyl1AAHoNyeMM1llgBgXitc8khOyPSSzXNP4c4DAq6OY8bhQKOUsChB57L0f7+IJYwK8KHbzRO/gEwDBd4AvA7HI1gQQACmGlhGg7wAE8sU4Apwa3Une/EQoHUAAfnjm9BVdFN40veVvnwNODIlxMyJ4LSJbAD9+JvM8zK4AAe0DIHAA6Xm60byIFjA29IhxAyDkIAACQ8sBRPc6QBC5soTAQaFrRAoYXMbL+wAK7wqZwpMMGJsSyy9Nc1iPIACwgDnbxCmh3zkjlvnwBhrHBj3ABFBj2+glckpeGF60pwMZZnQVHfFcc9pVJ27Gd00AgfHmcEQDLskeugMIIgh0qbkHAsgHIE2G6Bf2116vaGSfzqWj0JnM0xV+c/jZvbatESDwmggj5AX1eSHPCEExqs5SNpjdizEkpSqET9lDLSYaSIBeoCLCCynO26jWtuP165oAgvdhckTBhJgUMYX79JdiJLiQvNCeMQopU5oYCcMwqItueQSB1wdJYgqNAaYoKQCggIcBzRM+hhaAqAMECDyK7LiOgsFoxsoQCI1jLIIAUTIcGIxXQiC67tqtAwSIlsBF40ETUHSlPPCOsYiQoC2Fg9fMHwVJMRBwCge/CQuaw0W1HCAAUWjPWKKJ9UkoPjbZ6ncU90F/ylJUAd1EnvzG9/gf36H5IlsdIIhw8Lj1gQL3N/nTP/xOyVEu+oXnKGDXMDQUKsNCRvwG0PBQhDmFM8duOUAAFMMb1B9rwcZBn+gvvqA7AE0gnpfIsIqUUZycEfso/E328dUiWx0gMNw2DNOHsW+JU4VHFP9xLb4SEWRUyQhPPwyq8XIA6FQ0wPOeJyJB/wI7eA9oApR8J8rjb+DI+xk595N34Whe+KzlrXyTontdz3kjnwwrmQVMeKeMr3d5Nt7Wd/rJPBizYld4DADQRAnCo9dvY6a38BRZZ7QsL4ROo5M805y6fl79knwPArvi3fQHwK6ugv/xEH6xtIN2+Eh0xFz42944xpYMkB/9o/tFDBhgwNj9XTb1zeO5HCCIoABflhiiAYj42FIfueAw6jOeRjfzgE54X3/ZtKhg6hlsGGclIuH0AH1Lljg6Sr+3bSUPQltKLei6ReZBiDUowI0nFtXsMMxYrSRKGouS3Z8zVqIkkQYKHjiknBcBCPLR5QDB/zxJQGvWPiXKNUL3DE5TE2EIANqdou3vKImS2tNq7CtzgADAAAN9Tyw09U+kQ4TD8tWYbRl5EDg6AA9ZIdcixva1WZYTEekCeApAGHP2ezxrkQChR3c631IAQmeSjXbDWABhtA51eFBJlNSBWCNfOvYxx5G7N/dxJZPiXBKNdkEBCKORst+DCkDoR7cx7iqZFMegYr9nFIDQj25j3FUAwhhU7PeMZUQQ+vWs+a4CEMakZo9nFYDQg2gj3VIAwkiE7PGYAhB6EG2kWwpAGImQPe0qNhIAACAASURBVB6zlgCBkVrVjGtt5sAmj0Vsfmzz7qHXrLuitCvYZrJ1bGOVY55q7DYRyluwji1KUK9j3/XZUbN6xrt1Ggcjpa2rzl9n2qO7jYZjJl9aJO+lCILd7ozsurZ1Ivi60nhWvwvtp5vRQvtC++koMN2bC98vj/ZliWF5tG58U1limG4CyhLDdLRf98hZOcUwHe+UTYrLo30BCMujdQEIE9M6f30BCNNNSAEI09G+7EGYjvZruQdBoo2xc60vcwqaEiUt8/1D3lUiCEOoN+zeAhCG0W/I3QUgDKHesHsLQBhGvyF3F4AwhHo97y0AoSfhRrit5EEYgYg9H1HyIPQk3Ai3lSWGEYjY8xFliaEn4XrcNnOJgXclNWvstrQxJOp7x3uk1o2CQpCR/2Uxa2p5lMLGyLEqOzYBBGlj7a73DmlJpaSUZ16LsrIySjFwUupK9StPdTQ73GXnqlfywpjy3Mv5LaWxIhsq0EmF2bc1RRBy2nu2lNWyYWnSucapDfMitSqvQPW9mC/X+1z/FUXRKDX9l5JVsxvYnA4pa90EEPCBNMqzdkkbnz5MvYu6KYKAV9AFnTRGWCEcdOX1RjEZ9I5SslK21sfidIHvpTXW/C2jmRSzmmJV+FO+/i5ZzXIeawII86Ii+A3/15siQsZnPOS3nrY1rmvSB0N2Ys+KIMgAVy9d21euFn1fDhCmcFLoXJUb63qrzbhnRRA8S8rqaPlJk3xu6vq/zXvHuqYJIOT2hL2h+4fw6Fj9rT+nKYLA1tAfdV2Qz8WsKH8u7+TbuEMf0WfseF9d2wgQonCKym6UmAHIcc0oUZZyaytsoQiSKlOUnbS+UXlMTuvI6U8RyNUtBWpUMJPfXsEMKTLlTQ+Q0XdCcuFkNPVFfQX58OWkjtreiKcAhgI8xuD0hqpoco+7Xo0CjRKV81oRDTmxEVoBDTnWKQfFQOS2jlzrfUtD5wBB8ZUoriGXunzlmnzpjL6c7QANQyVXu/oYSsJiAn2TqlbRnSgVKy+5uhLobJzylps/wq9Gg/kdkqI0BwhAiRzt8oZjXnU7NLxibOpiqPugOh36dckL3pc/Zt3XZEzVgEA7OdjxihojcrPjAzwhl7sqkwogSUuM7r5T1yDAMV5S6MxnmqIpjK+c+gqlqOcg1zuekQa7q4KP8dQBAhnFD0q9qq+h0E7ImxoFKt6pjaHAmhoeyn3rL/AI4BqL/PWAtFSt0Xfv0k999D4gFHAOIKUglZ+urQkg0CMKhpFLIE1RH7TH82RwlVoOEOiUqNmxrH7iXzUqzHuXlgMEBY/wO5pLMayOgiJLjGvUJsHjdCNewrN0OH1orhSlWuYx8xwgkKmoK6OOgblQ30HdCN8NceC60LXNtTlAoA/pUHpE7Rm6hfzRm+rykAmFmMi1eTG+MPb0vpoqdCtZIb+KZrlXLQY2gx3mWLJtURysTT/jmkaAgBkYUBXIKHLCoMKVwTEylCgGMjhC4Xu/KSUFShSYCC+VIuAxKSzBcFAs5557bjJ8FCdjNbScZg4QVGKk3BFOVUAAwWcYi/I2NkLlOwYVwSlYhjS8J8ZA7mrGjGFTQU1hJIUwjFVpUJ43MCKHvOf2aTlAIGwYXDVAEYooxGSyRUDkySfI5kiRDgBHESYN4EJfgqFanHz1+kf567Pc3J7hb8WIFI1RFGRMgMAwAoiKgsS+Ft6zuVCcBhMDK2hN2QCWU7UmgID2hE5+B2BKERUeNtqZbwBB4SNeLpCroSUeDqCLF/CasbmHzPAO8B2w7B0avlXtr17gqgst6gABgGe48SdlIYe84juUD96lTOreVBToAUIVpaFAVAbVyK9+R0U9hW4YIs9SWIhsyOmO19DIZ11bE0BgnDxT5T+8Acxo+jZWtLFrP2dd3wQQyBFHiO4TZcRfgDwFT2d++9vfTnpGgSWNDOAL15MR80Nu6RZgn/zjM/oTqFMwCW3oLIaDPhYhHAoQ8KF30PfmgGOEh9E8SjEDEPjWuxSLovsBN8ARyDTeZbU6QGCHGE6VKNFHX+gY/UZbRQeHOqBjjisHCBxsfQXSzC3wpeAbPqIX6HSRGnIN5LPD+ITRx1N0DJCG18itH+Df88gQXlGwjbyyt13bzCUGXihG4Cl5sBdBniqNqYTIqOowQ6CzjKTJUP2L0sNwrlGbWlMQxuCiRYlNSGdImDUUbYSE/Y+JVbVjlCAvCU0IG2NsSQBDEVLKWl+V9tRfyonx0ihBXlQoLBPkHt4fj4rCjMbgilB0rYTo/qYlBpEbAorRGScNvUw4gVQVURU1tOZZhXdF0AEhysTcRcN0DJwqbZA148Gb5VEStjEBgndSiHgDQGAIVBJDL8ou+ECVOqCxzhNdmXfo9TlAIJiiB3iG4BJQURaAx1zwRvAOvuY98a4YV3IhkqMoimbuzBuQh+4ABCEW1Qphd52IkOfj0z4hwDpAALqNB+BmsEUoyKP3Awy5h1cHCLx28xKl2JWxRgsRHg0A9UzAlBNA1ng8xoIn+5RWzgECXuDpkVNAyjMZTgaVwqMnVqk1AQTyxZDif+CRJyeSpsog+pEJRldUE+gSrcFrvELlq0V+GH4KHUggl+aFM8CzpK9EcFVcRC8GXfXHoQABXYFLRgRAoEPoP31loBgrelJJbYCHrmPMjINBEnEesyTyvHmuAwTOED2NzwFhDlVEVckEcB7Ad95zl/F90xIDvQ0Qsll0smbu6W38RHZFetkmtAcQACOywulSERLAFNXGZ/72GZvmueZWGXQOcdfWCBAoMw/HeDwJjM2LNjjKIkKXARB0hrIgFEJPkCZvg9KD/rU6QMBc1mNNHkUztNUjCFC6vgpdU8DWgzEyRiJkGEnD8IAP5QmgWF8T/SB8WgAEIVWT4blqrDOwEc5hBAAIk8SI9Gk5QKAkKGi0r1esq0cQ9IcQ2zcBDISB1wdCLMzPCwCGKGKKi7EDKgA6RlDkgcGKcqd9+u6epj0IdYCAbuYbzTTRDJEkRpPCYwymajlAoKSF+YTeAWR9Awp4Szx0ywS+x7vWPKMcOOHD+xEJAxCUw/W5Z+FHgq1GO4HHe5p5BJxc16fVAYJ5FCnD35QC4AFM8jCaolt1gEDxqPCJ1zUGAZ+HYjVO/ON9ZF8ZYPzDM2NUOA9dWw4QKHaAi8FDO96pvR0aue0rX1371fb6WQCB/NJ/gBqDRU6Nxe8Aw5wN8yRayeCSA/JOJsguJ8x8iljSmwwwRyvWpRk+cwpMeMfYAIGBAQZ55MALgIOX8LgIh7kyHk4hoyMK2Sd83ZbW+XV1gIBGaAbAA+90OZ4EztglkUCysCotBwiiSHSCCF84g/oaAMGYjAG/0EVsFoBAr5JJ/GGsngscAGyAA/nkeNC19IJrDz/88M5kaAQIDAcGR2yG1ssoR5v+GB3rsloABMLC8IRQUDj5RqMACJjPtVGr3FLD0HSxdYBAGesf7wnRGEeE5c1RNAyqqAiCWZ+3hwBzQ1/6RsA1z+SFYzxoH+GhaYrThhGo1Rg8j+cV3lbXGcgBgndRBqIRFMv222+fHilqw/hbYuCx6hfPgvIwJ+aKUaOEIEYGeYcddki12c0bVE2xGwfm47nwRnhnmLNvmwUQGEMKBn0BNbyhib5AxCII3qvvU7U6QEDTCBEDtvZ5UIL6CSDwpiw5AQgUsr+Dxwj50572tKsABHMoEiQ6RXDxHq+PBw6MUgZ4Dh/1Dc/mexCAEPsBGBwGhMEBdBmcvAEI9rrgEV464AYQkHWhfZGRaOQ5NvSSV7IhegV8A9UMRNc2a5MiJQaYUZrCpN4LZKHfKrWuAAEPcLYYWvIgwkN/iG7iHXJNHwEX5Fy0EnDEY/Ss0DmeNE+WIYEoTg9QOjZAYFgBFE3JY9EBETW8ImJEt9CrAINrOQBDNjp3ndc6QLCECrAAW/geOKbfRXpFWMgEWq9KywGC/pEf0bIAYXWAIDovekau6VJRBTwAKABrxhnjppPYC3aK/AIXHBmRKjaxafPxPLq0TpTEUza4WcrMRFEYU+QnH7KDmJGAxOvobR7RfG+8AAUvf8iu6zHyIGAiBq6+zBL9YwQWuQbX55gjBWn5YejSUpt52uyaeTv+5z0f3wA7gFCXxhNkiGNJosu99WubTjHwSPtueoywcpOyN2dkP/YWAcnG3WdpxBja5EEwP7ylMaKMfWk8676uxxwBZoqeHm066YW+5HQWPfGM70NmePjmqQ/92+RBYFi8K2hPn+Ctet2VqWoi5JsU2SVedt3R5GGjzzqcYpjHmzntASDg0djwBacl+IANppNi3JwRMttXhloDhHmDmPL7IQBhyn579xgAYcox9AEIU/a3/u6hAGHqcZQ8CNPNQFeAIBppKXIVWhuAsAr9nNWHkgdhebNTAMLyaN34pgIQppuAAhCmo32bCMJ0vZv/5q4AYf4Tl3dFAQjLo3X+ppJJcQLalwjCBES/8pUlgjAd7UsEYTraF4AwHe1LBGF5tC8RhOXRukQQJqZ1/voSQZhuQkoEYTralwjCdLQvEYQJaJ9HEOzidNbfBg67yO3etyPdLnWnDvxts5Cd5nYDT9nKEsN01M8BguNCdvpKJmUXt82fNqA6TuoUg9MM8gPYmGpXfX3DllE4ciZVrd3eTsnE6RD86TQEj9/GLs1Gtfz0iCRTNhs5VtamlQhCGyot5poSQVgMXds8tUQQ2lBpnGu2yAiCo3SUryN/jnc4SudoiMxTzu46h06Ru06mPEeMpmoFIExF+SolFqqfysEXzqgDBnKB2CnsSJecEs7hAwtySTDk8hfUk1EZheNqdg87yuhZeA2YcPRWYiX5Ahzx1VxXP21gt7HdyXIRODrYphWA0IZKi7mmAITF0LXNUwtAaEOlca7ZIgGC86COezj/LQOVIy8AgoQvvL5IwCIpi7wAspZN1QpAmIryzQCBQZeoCgBgxOUAABCcNZezII60OmfsvH4ccZRnQ94D+QGinocELs61M/hyIMjHEUmtHPOs54DAgzIJemcBCNPxRNs3F4DQllLjX1cAwvg0nfXELRIgSMrjxwY6qUMligAQKN5IQYsgFHrUDVgeya/6pgIQpqJ8M0AQVbD8JMun5YYACNIRi0DFeWLRBVlDI2dAJGQRCfAMiancY6lBpAE4cMxNchnLCKIHkX3OcoakQM4zi15IltXm/HaJIEzHOwUgTEf7AhCWR/stEiBYOpCYRBrQqMgHIPAKeX0+p6SlEbXU0NZjW8S0FICwCKq2e+asJQbJpWTGtFcFr4ggWDKwvKDuhaQ2jH+9SJF03lF0SfEVwNMSF/6zX0ESFwBBGuNIahK/ZamTf18iGglq2lbHKwCh3Twv4qoCEBZB1XbPLAChHZ3GuGqLBghRJ8F+BErXcoJUoZGb3iZFhqCNtzYGsZueUQDCoig7/7mzAIL0tZYZAEgpbhl4exWATtkGZSYTmYriRsqyqvoZEQGbGV2vwpylCfsZRB4ABEtfmggCYFBv6j2IJLTNHV8Awvw5XtQVBSAsirLzn1sAwnwajXXFFgkQ5hEHcJC+chVKyBaAMG+2Fvd9n2OOlhDwzdRpolGlAITF8ca8JxeAMI9Ci/u+AITF0TZ/8s8kQFgeeee/qQCE+TRa1BV9AMKi+tLnuQUg9KHaOPcUgDAOHfs8pQCEPlTrd08BCP3oNtpdBSCMRsrODyoAoTPJRruhJEoajZSdH1QSJXUm2Wg3lERJo5Gy/YNKquX2tBr7ypJqeWyKtn9eiSC0p9XYV5YIwtgUbf+8EkFoT6uhV25EEKbcqDd0EI4xLrMe+dD+1u+3HyJK6I753GU9S44Ju/7Xsa27FyvngrwN69h+/OMfV1e/+tXXseupzzaT3vjGN17L/tt/5QRNn1LRqzBgZdZlO13XJoKzCnuY2tBvAyDo9Lo2x8PqWenWaRzrbqTUYc9TDq8L/dfdSDkR4fjkOrZ1UpJN9F1np2TdAYJ05Te4wQ3Wke1Tn9F/XRzyAhAmZrMCEKabgAIQpqN9AQjT0b4AhOloXwDCBLQvEYQJiH7lK0sEYTralwjCdLQvEYTpaF8iCMujfYkgLI/WjW8qEYTpJqBEEKajfYkgTEf7EkGYjvZbTASB8rSRIjayOJ6h1Te25MfENjs2lhvCMQ1jUwRBqWeFdWyEMhYJbqRV1nyn3K51IPfKjneb29zmKomTKDDf1dd4eWye4ZmOJ9pNay1syCa9JjrktNdntJXiV1Pox49mXq644oq0rqX4T8yPlL36Z3/AjW50o3Rtvf/+/8EPfpCujwJEfcSmKYKQG958PGPOfZ8+xz1NACHnle9+97tpfws64Ql0RS/0vvzyyxMvbL311leRC7xmXq51rWulV7nWc4KXbLLCg1Gcqe8YmiIITWPS50gKhvbeXW94xPiMRwbIyBBZv6ZJH6BH342GTQABnfz0fWZfOva5L48g1HUQ3YDeq7oJcBZAqPNJ6JbNxjDVMeE2EQR8jo9WcQ7yPQj+1+r7Esibvs/bzJjLe65bhzpBjREEOei/8IUvJAPyuMc9LhkndQwwvSI20s+qby+lrLoHFM6LX/zitKPagBSmicEa/Fe+8pXq2GOPrY444ohECOVvTZ7nSl87dBd/DhAoZylu995772qfffZJhvKwww7bKLbjb8V1FGt63/vel8ajhK9yvbe+9a1THylx9RuOOuqo6uY3v3kCGXLxS7FrTPLu3/a2t03g4q53vWsq59un5RN6yimnVJdcckkCNFJEMz6afqoYyMgo6HPnO985jU0xIWABvRkhtLe7Xc5//bPbmiE64IADUk0BqaV32GGHZMAUFNJ3c9y31QGCExmqHOoPQ6MvjkEqVvTMZz6z2mqrrarjjz8+zccPf/jD9NkQcNW3z5sBhPe///3Vu971ruq4445LPKoCqMJfCijhiZNPPjkVaXrVq16VwBe6m49DDz10g4+laCYfr3jFK9KrpPh239vf/vaUvtmcAJaXXXZZuqZvRs86QMCTKkJGMSn90T7zmc9UUkFHmWlHgt/97ndvpIxGf2Mjm9JFmxdjMnfR3vve91YXXXRRAsXGDiAZv/nceeedq1122aXzVOQAgSyqeInm97vf/VIF1i9/+cuJT/FQnpa68wtHvqEOEPRx//33T7qBrKGvEvI3velNR37rOI/LAQLHQ2rxCy+8sFIJl+4np657yEMekgzV2WefneYCiDzhhBOSXqS/2Qj6NKqajtPDzZ+SAwQ6B9/og+qp5I380U3Pfe5zV+6kTx0gKNR22mmnJbvJXtHNmnmQcv0ud7lLsgNAO7369Kc/fYM4ZJbOJZdqxaj/gi/plxe+8IWVZ/sha/GMrvPTCBAoF0RnNC+99NKkANWqxyhq3FNECtV89atfrV75ylemQjOUEGMvbz3lGgyDgRhTCoDR0lmKklICGnbbbbdUYXFIywHCBRdcUFGEDK2COQwSxUyhI/ALXvCCVGxH3yk648LsJ554YjKiARBMkgkCHCha37uPsmJob3WrW1UMPCBhzH1aDhBMOiYnkJR15OUHEByrUiwIeADMHvjAB6YxmnxNtUFgxvgBOREFwMb3xxxzTOo7wGH85kNFwh133HE0gADAYFbltF/0ohclJlfsCH/gJwZFsSxg8pxzzklHU71/qtaErgkafgTElAp/1KMelQSTEqSEGHrAi3EGHjT8DazFzmq8Rm4YDMYfAKMU0J3yIicaZUsW0KlPqwOEz372s4kX9PfVr3516pt3k1UAHP3r7YwzzkhjVLESPwPGDLOmrLXPt9122/Q/sI0vybt5AyDwJfrJxRDl07uMIQcI+olnGSFAd/vtt0+PoyMAECB+lVoOEOhF/I3OFD6AgF/e8573pHl48IMfXJ177rkJSKCvuhyf/vSnE88AZstsOUBgRM4///zEo3iR/qFf9Ju+BAa0T3ziE8nwKm5H3/lNtjkZEZ1dxjjqAAG/0DX4HdjlmCipjp84bwzrqh1HrQMEsooXgBk0P/rooyuAnO1V+RV/AM5oTbeHXf3e976X7Omzn/3silMpIs5h58grM48unB3PFGHm9PTRMzP3IOgA75T3RKnxQAg1BaQjjCphgFQYBUaIQNzpTndKf7tfC6UpalDvIMXi+Tyo8Hr6MlcOEACcgw46qDr11FOTQOorIfjc5z6XPCAEN66PfOQjicAIitERVVU+jbfI4Ho2kGESd91116S4AAsGN5qJcl+f0GhTuB34OvPMM9N7wwsBEC6++OJkVI0DOKBI73a3u20ocpEDBoznFUKtj5gGg4kYMARoc95556Xywp4xVgTBu9AQmBKF0v94vwgLBQpkMTLmnNHRh6laDhAgb7yx7777JkCJN9EKn1I4lCWFj5+gfYrHeIyZpxXREPeKpjHg++23XwIB5s41QJ/PNOBZ5UfC2ycUWgcIH/rQhxLIBWooDEAQ/5M5QAXwmQUQRAsYhZvd7GbpEsoJj+mbBgwzat7HYFPQQIJIAsMN7HdtOUDggIT8eCY9AwjjkbzvXd+1iOtzgEC/kUWKnrK+173ulWiv7+RRRISiJoMcDnqHXNJVyz6y17TEwJjyQPWZkbrPfe6TAAIdT/9bftBXuk+SKOMVLTE2ny1TjusAgfPKCAIpAAw7hZ+BeAAcsI8o7CL4oM8z8yUGtGVTLQWLyNEfgI0fciZio4DcRz/60eSM0BXoLuJDP7FjwDuQR05F3DiJIpRk39ya04hodulzI0BgvClEzHLLW94y/fY/oaY0DEYLgKAzlhmgZOiNF05hGYgwslYHCAYMiZq8vuHV+iDrAIHS10eENREYh7eDmBSZvokkUHqMAebShGooJcq8DhDucY97JANw1llnJaGhBHjFUCvU7DtecSyfdCG+a3OAILyHGTAAI4tGWj2CwNigOUXKKKC7Bugw+MKFz3nOc5JB1j/KCP15gpQTweFxWnYQOh4LIHgXY6p5Txg9ijAAAn5QWZP3BOFGKLwr3ca4PgcI+k7J4B3zot+iLoSOksQjDDyFLlELYdbwDL4QsdEIOF6hOLfZZpvEc8YJnBo33tMoOrLVN/pUBwiUBDnAC/iassEP+gQcez9ZjlaPIFAiwItlK828iDrsvvvu6X/gVx9F5QAi/TaH4TAIR89bK83nKwcI+EJkSRNhodC8g2cYe2jGmPOxntEEEMwloEPniMYIb4dxMg/APQDBywXA0BHgWnabBxDwOf4AAEU9GBb89fnPfz45SvjA5/QsGTG2ZUYC6wABHxkPh4Mckjd8A+zge8BMdG+VWh0g4COyia6qv7JBInJsMNDFKQGcyRd7i8foJyBApIEzDhjQBeRWNFAkERhl80SJPYsTG7auCy0aAQIFRjEy3pQhY2SdilekY77TAiBgHEqCUSDomD4POQVAoMR4t4w2A5JvDuzS+bi2DhAwrCgGBI95GEUKJwDChz/84fR+fbRWKPohyuB/oIX3pUUEgXK3hOB7oIchsGTBC2ZYCY7/Kdk+LQcIaEjwTLLvwpjUAYLPATa0FtoEyjAQAwe8QI7GhukAAIDCUgoDhT7Gw7gJpY8JENAWwKEsMDFh1eoAwd4P/INuQtxoP1XLAQI6MkxoCWT5sWwCIDCYlD8jKxSO9uaKsFNI5qMOEBgICooXT3GhuagTo0ER4FHejvf19b7qAIEXok8iAZSCkub4RKMYRPrqRrwOEHjq+Ih3KwqlPDU+in1E5EdkAl9FREuEkJcGOIdh7zKPOUDQXwaUURLB8E4AVhRvyCbaLn3qcm0TQLCERD9S6kLHhx9+eNJzFDRdSidxJjhID3/4w5NuQtdlt3kAIXQg/Yw37L1iYBguTgm+ovvof7zPGVnmMkkdIDCE5BMtARnyBFSSRzaJY0LeVqnVAQJHc6+99kpRJ0uZkSGS8RfRI9d0ZexxAXzwFd3jR7TEmNlXOsa42TfAQTTZ2NknzxI179oaAYIQUuystIObAhOC1yiFUDSRbtS1BINygZib0h7HtRhOWCgaxoKoh7Q6QNAPQCY2Pnqv/vO0I+OfTZMUHQVoXBAx5Q4521egEQIK2LNc73PvsQakv+6xji/MzND2zYyVAwRADNPbAe+dEXYVoYGS4/SCkJI1KWFq3giFa78ERguAo3/C3iIS5ixy96N/ADge8ZBsfPVNiuiFRhrlEt6Tz/GRPvgePc2J8fUJrQ/hlfq9dYCAh/FvrFfiBf+jq1Cffhqre9CUgUR34woejmiY8cYJBvd4ZswXgTcv6ABADdmkmZ9i0F98SRnUw9ZNaYHxE94K46ufgD7e1q+6UdZnES28b05FivyP5y1Z9VkizAECOQDQ8Ug8M3LuT8kjs3gtP8VQp7G5NudxwigcIfQmg0CmaxiDPsuSQ/m/CSDgd/yk376PuSCj5pfOwFOh+/Fa6JNlp/vONynieZECcqiPdCheNhaysGr8UwcI+CCAPJsVy3z0g//pFHT2v7mgb4ACTgAZDntnrGwB3cL+sg3kln1jM/KTVm15qORBaEupBV23Kkf++g6vJErqS7nh95VEScNp2PcJJVFSX8oNv6/NMcfhb1ncE/I9CF3fxMGqLxd2vb/L9QUgdKHWAq4tAGEBRG35yKFnhFu+ZmGXFYCwMNLOfXABCHNJtLALftYBwsII2/DgAhCWSe2GdxWAMN0EFIAwHe1LJsXpaD8rUdJ0Per25gIQutFryNUFIAyh3gj3FoAwAhF7PqIAhJ6EG+G2AhBGIGLPRxSA0JNwI902dIlhpG60eswWCRBs8nM6ggGQsMamJ585gWCTpFMZNudJwDJkg14rCs+5qACEMajY7xk5QLAxy+ZVGwyFkG3EssHHxiGbyWyac7LBZiHHX/PNeb63scixPBsY8Ztms5BNXjY24jvNdZJe1VvXtcWyxNBv3se4K19isMnPiSBnzh1xtUlszOa0FZ6xWc1G0tgE2+cdBSD0odp49xSAMB4tWz0pT5TkSJ+jRo792WG7xx57pONFfIdB2gAAIABJREFUjts5tugomN3jkd9hykxbBSC0muKFXJQDBMcOJUmyg9+RNWf/5TRwbMpZYzkM8JHzxo6ORiKo6JxjkACF41+Ofvnerm95CZww8ds1ms/r5/slS5KN1O+2rQCEtpQa/7ocIDhG6hijY4uSI8m5IhOlkwx+nPiIejbxv17Vv8//rxtyfOiYoV3tcfy8/n3Ts2eNugCE8fmhyxMLQOhCrRGubQIIDK/jfdJVEmaKXRpoSPwBD3hAequMfxJ+hNIeoSudH1EAQmeSjXZDE0Dg9TuDLHcAL835bwAB/wAQjhlRxs4dS2IVx1sdRcJLTnXIWili4DM5E6J2g3wBwGtTc59nSq7UthWA0JZS419XBwgiR3IHhB4RTTCfwCKgCAzSQ5FwzbE7DorvnF0XGZBcCaCQM8MxPVFPx/ccZQM2nH/n7ACwjiiLNsll4V3ydzjO5ry85kibnBYFIIw/72M8sQCEMajY4Rk5QKCU5SbgoUkYEQBBogienFwOGqGSTEOyiqlaAQhTUb5KS1D1c+gAAMPO6ItACRMHQPC/hCwBCCTOkgQnzoBLlCWJDIVuScF3AITkSMCGiITIFdCqOa9N2debjJfON7dtBSC0pdT419UBgmUn2UklFJJR1TKDnBGAAaMPVIo6qTsDdErXLmOe5DeWPOXZkNgMEP3ABz6Q+MbSqNwtsqniEwnIRBDkWxBBkBRIRls87J10mqNveBCvijjMOv9fIgjj80OXJxaA0IVaI1ybAwQKGTr3W1Y/Wet4gICAEK5EE4RHdkJIn7BO1QpAmIryzQBBqmIenUx4MpRZZqC48Q5PjWdHcTPmkVbaCGQiFDnQKHvfCTtLXyybGa8OQJgVQXBfAQjT8ULXN9cBgvTmdA2jTa9INGd5CTCwvClBGwABHAADkrIBE3hNNMAeFwlu7JsSGVCrQwZV2QGlRBddqAMEexAASTVbvE9kCvAU/ZIsSLZSy6kFIHSd1eVcXwDCcui88ZamJQbK2HEYwiPcRoAJDYUv6xZhlXkKcBijHkTfIReA0Jdyw++btQdBERpFmUSY7EcQ4sVjAAMFL/QrlXKkya3XQdAr+dAZAcrffgSeHqWOJ2O/i+cCFSWCMHwep3hCvgeBs4EPRJ0sOYgkSatt3wk+ABIiw10ABBEphl5GRaATT7lXemBp0jk3/hcNlSEVP4o+yEIKONhEC5yIjMrIB0gUgDAFN3R7ZwEI3eg1+OocIMx7IOFlmJtSQs+7d+zvC0AYm6Ltn9f1mKM1ZEsQimBNCSpjhGWJof1cj31lU6Ik+5ssGdT1Cp7xeaRIb+oHRyU/leA+J14ASeChKR29/QeWMboWyipLDGNzQ7fnFYDQjV6Dr+4KEAa/cMQHFIAwIjE7PqorQOj4+IVfXgDCwkk88wUlk+J0tC+JkpZH+y0yD8LyyDf8TQUgDKdh3ycUgNCXcsPvK4mShtOw7xNKBKEv5ca5r0QQxqFj66eUCEJrUo1+YSnWNDpJWz+wRBBak2r0C0sEYXSStn5giSC0JtXgC0sEYTAJhz2gRBCG0W/I3SWCMIR6w+4tEYRh9Btyd4kgDKHe8HvXMoIwfNjTPWGdPSkbjRyrW9e2zp7UugMEp3Ek3FnHtu4AwQmCyIGxbvSPrIuzjkGu+nhsFK5nIV31/ub9W0uAsNku21WfAMfO5NBfx2aHs6Qq69q+9rWvpXPc69hm7Q5fl7HI1OjY5Tq2dY+cyXWgJsc6NuAMOIikX+s2Bkc/5RVZxwacoX89Qdsqj2NjiaEAhGmmqQCEaejurQUgTEf7AhCmo30BCNPRvgCECWhfIggTEP3KV5YIwnS0LxGE6WhfIgjT0b5EEJZH+5kRBEhn3hpVvpay2bpifu2Y6zBNAIGHIoFIVFGz3hzlea37+9v4/C0hiUxl9YQjxu+7eoISHqf9Au4zVkVVorpa3ylriiA00cb7jEkTnqqHqPRDf40h5iz6p/+xhFHvv+egSTyvb/+bAMI8vqh/b0zh0ZiTZYY9myII6KhPsS+kvkekjv79je7oje71ltM15yX85h0y4s2Tsc3mpQkgzOKd4G3fG1O94RH9UI7adZLz5K1JH7TREbP63zaCMOQdfXm6zX05QMh5yf/z+BmfoHfOA018Wddnbfq32TVNEYSmfQk57Repw7uMqQkgrErf5o1jVgQh7/882sd75l03VH4aAcKnPvWpVFlOLnG542UHk4feyxQBkTaUkpHGWM5xzKv2wRVXXFEddNBBGznpYxC+f+lLX5rSzmpS1p5zzjnVzjvvXD3zmc8cpCQ9rwkgyGV+wAEHpFzo+qXSmoprDJCUt1IsM84KmzAGJuiEE07YUI4KrqjCd/LJJycDQKgUTVEYxZq7+2wS8zw52OVR79NygID2aIX26BQZ1k499dTq9a9/fVIo+qKexK677prS+CroQslIufq4xz0uzQ26fuMb30hdkmZaulb0eN7znpdytmuuUVvA3PZtdYCAPw499NBUaObAAw9MP295y1sSDb1TGVzFaIxLymGFjIxVVc1o0hQvK8NlkyL+0Ic+lHhc9Tw03WeffVLxnO222y4V4TnxxBMTL73uda+rzjzzzNRtPIaGoehf+9rXprS4eEXD6+RI9T1/q/MA4EnLe9RRR/Xm/xwgHH744dWHP/zh6oEPfODGnAIxCkV5j/a5z30ulTlnnPQXP+Er47nooouSHDz84Q9P6aWjqQPgHrxoHAyfImgARaSf7so/OUAgj+oVeL99FXhWjZQoRiT99Sq1HCDggde85jWVfuqzOTAGdThmNfyh7kJ9PR1PqtNAputNWu773//+P1Xgqw9NcoBAP9ILeFINEcD14IMPTo4T/a6Wjfmiv9kFck7301Xkg54cAnS7jqEOEPALOkpzjeb4koyqiqnf+tw102TX/nS5vgkgGAP+P/LIIxOd8T2bi3+22WabNAa0VtyrXjdI6QA2TZlxMk72PcN+PFVh1fcwT2yJonN9sr82AgTFadQs+PSnP52UvbPuGJRieNrTnpaYSWEZCkOucQpER31GuVCu4VW5V15xjH/66acnBSD/OCWLGZVeVoFsSMsBwiWXXJIMkcpn3kUAMPZee+2VjFYABIpfVT4etn6qyIfAGmOA2ULZMoT6zKCZGGDBxEiTSpiMv0/LAQJho2hMtt26SlRrAAKj6p1oaQ7Mk/fqt2aM6Hn22WdXu+yyS3Xf+943CTlg4H7Xy9fOiDMuxqdgzFgA4eMf/3gCTYAKACMXvXcx+hgVcxNm49NHCsk9ihppCmlJY0zZLqM1AQQ8AQCj3b3vfe+UF991lA6h9dscXHjhhQkUU4z4m4Ay+BqA8NGPfjQBTg3PuZdMqRiJxygtY7/44otTcZ0+rQ4QPv/5z1dnnXVWehYeJYsiAyqbqvIXfO09ZFCtCRUld9hhhw2AqdhUKH98F4bL30AwxaxyIT2gWiXFo2DQYx7zmM7dzwECo+rdeEUNAkAN3egRJZEBmFVqOUBQznn33XdPjgO9o/4L/gAQ6CK5WvCSeadX6Sh6i760I/+0005LejDqNNQBAkXvfycnyM7QlgMEeo2cOg0G8OnH3nvvnfqF9gqV+c0Z0g86hY7H9/QQ24DHltXqAIEMqUtxyCGHJL6nd+g1jgkwywklx6vSmgCC8vLmH4/rM5643vWul/Q6UEhHoD85NC7zQCdxuOh8MsMBZE8BIzZBfY+TTjop2T+6gb6l27q2RoAQxwYpFQiGp+Tl4UVTLhQjA0DhKW/LSFLudvZSTjmixIDQKOXEKBoksOEdeYi26yBygMDbgcKVciaovCgKB5F4b/pMGVKo0FkIq74xbgEQgAeC7Temu8c97pEYDrIzKREO57lRDLGE0aX/OUAgfIAUGkOBcZyHgeeVil7wuKNkNZTMYGkKtriPlwgxRv+MmRIXXVDMxbyde+65aWzaWACBkscjFA4G5R2JHph7/ccbhPmDH/xgeq8IgrkAstwHhDGuyzq6lwMEHjGBwjtAIKPIEBJUgolOAIKIE7DJgJ533nmJpxk1BjMAAvCsSA9+orgoNYKP5uGdex/wphRwHw+sDhAYIbwE8OkjucXzQCFQhs71Zj4ABP3G22Q2duVTukA/sBoABxAA/kQijEGUyrhFDBUZ6tqalhguu+yyxC8AI90Q0RXv4Ij0oVHXfrW9PgcIofPwDLmlsPEx3anEPHAv2oe3yDdZpDPoDvJJTzEUZNn9dYCAJ4Fm37uPbA1pOUBQ8Inufsc73pHm1jzgF44Tw6uoFNoDA3RfLHf6jXcA32WexKoDhE984hOJz+kcQIWM0nFkURSZUVwmeJk3LzlAMBYGnb5QvZMtJdfmnJ5gi+kR+gZ4IBf0+pe+9KU0biDt/PPPT7ofr5FTz+Rg0rXu8R0+A/66tkaAwJuGTISwKRweN2FlACh9aEcLgECh8CyEQCA4k0UIDAT61AIg+JuB8AwTqEzp0FYHCCaAd0+IjIMCFAUQgjIW/cHs0Bi0ZSK+/OUvJ+XHEFDWARAIBkRP2BEaquYRuAexQyh4CgSqjwLLAQLvw4kSNOVpEEqNQsc8+gIgMG5QJuYJj/uTn/xkivgIFWOIOJmC9jxcIC6WIDAQD40nPBZAoGiEsTA1QMm4oqfoAcUP1ABb6AUVAwQKZ+mTJoxm/ARlGS0HCBA8gy+CoG/KNvPAKXZGFi8oxysEa8nk7ne/exoHQX3IQx6ywctAjiUJNNhtt92SHDF6QJpoFqWroRcj7D19Wh0g6DcgLOTLu2OcyJg5oPjJc/3cfh0gWGrSp5BFyyDAi3s1wAboMDfGZumKPOB/ACeW7rqMoQkgMD70izA9PcJ5IFPrABDwNONO5ihp88rxAYLpTnJqTMp/77TTTmlJkr5BY54g2aALeO9kJgACfUavAnPmBPDr4wnW5yYHCPgGsEF3gJL+1jfzSzYtQdUBgmfR7/S4iNWyDXC+xECPk1f6ke6gf4AuxjOWU7vw5iKvzQECYCmKx36K/qIlOSVj7IwIgkigCBX5wGfsKmcRn4gscA5cr6KoqIGIAV3qmewUnUWWRgMIlAUGtxYI2VCQGBOTCwNHSDsAAhTHAGOmJz7xiakjGLreAiDwkDEg0EGYKLI+nnf92XWAQNny8HhuBAoyF1HQP6CA0WesrDMTXgBCCVXrw7xEUYY6QHCPvlsjgtpEETyLUDEeDLJJIUR9Wg4QAvVC8X4wUAAEoIfh4XHzSiFmY2P8hS4ZYj+MPoHhrQA/EL5wN0VPeREcQMe4AZGxAAIjhXEZS8zMQ9J/NPcbHQEpffZeIVPALNbV9JvRDsDQh55d7skBAtoTJACAt0bRMLL4n4KkfBhRwspAAm8EnhygexhYRhRow2fAg6gOmTIPjASe4uX4n0EHNPq0OkBgvHmeZEtUzA/+0fSfzNb3dtQBAr42R5QNmSEXnhWbFY3bD8WDXxl3howio8T68H4TQKA70ESj9Okee2RE6wDeVWp5BIHixu/GgJ/RGkCgjwBEsiuqB5RbfgIW0du8MGZAGoUe68cBEBgBXn0sU+FRYG1IywEC3qVXtt1222SM6Dd8bY7NRyxPRQSB40Xn4DW6Fh8s81x/HSDgewAY0KJz8Ala+Y1/zUNTJcwh9Btybw4QOHNkit3hwALbotv6zSkx38YncuCHrcETHA/8xuG17ARE00Pmyw+w4Vqfk2/OCL3ftTVGELwgdjpbs8Y4vBJNh8MzpfgoOMKuM1AMo2P9O28ULcPBgDDG0XggQzOS1QECQ8jT5wVq+igML3+3vmmUofdiasrTWj/PHOOH90ooCbLoAwWIuDx068xADQUrhAMIMWh9mTAHCJQw+jBSsQarz5ZBALRIjCPkKiJgYxfQJtzL+wojxcBBkUKH5oxnT9Hqq++EPTXokkfTt+WnGNDTfKC15RjKxg/vxBqsqEh46ZiXYOAJzZgJR9Mu+r792+y+OkDA75acGH9NhkghO/NDmeMVChwwhOoBQzzNy2IALAXFctAFF1yQ+EkDhPC95S6GA6+hEaBsbXTPPffsPbR8k6L+Wl4CYimQaCF79RfhJwY49hnop3kB1s1BfeOcPgOW5gXoxGt4ScODsbTSZSA5QGC0yCoe1swHPeQ6Xu1QHdGlb22uzQFC6EL6R2hYpIjMifLFfBtbrA0zbPiFfiEvlvwYBWMl2wGSgUxOTPAWL7G+nNWmr/k1OUDwPsBQ8x79FE3D+5ygSEIXfAR44pVoeIKeWVbLTzGIZtingS7sVfCm/pC9VUomNusUA51BD9NJ7I3fIuGW/YBMel6kwd4o9DZG4ILc0q3G6RrXkhU8iMfYBnqVDuuzWbMkSloWV894T0mUNN0ElERJ09G+7THH6Xq4+ZtLHoTpZuZnPQ8CkBh75RY9CwUgLJrCc55fAMJ0E1AAwnS0LwBhOtqXTIrT0b5kUpyA9iWT4gREv/KVJZPidLQvmRSno32JIExH+5/1CMIyKV8iCMukdsO7SgRhugkoEYTpaF8iCNPRvkQQpqN9iSBMQPs8gmCzYWxStFPe5j6bDmOjj41cDLPNXH02bow5xAIQxqRmt2flAMHGRBt67My2Sc4pBhvN8I+jRZId2fjpKFJTBUs8ZjOjTbxOZwS/UQq+875Il43v8vPsNi52KZpWIgjd5nvMq0sEYUxqdntWiSB0o9eQq7fICILjLo7kOCrlmJ8jZo6IOC7iuJ3z7HZe24nrmNEyd+Dmk1UAwhD2HXZvDhCcR3cU1C5gx4fs/JUvwm9HhexQd+rASQynVxxpqzdHGIEJR8DiyB5g4eiSEwB2pMu2pzn9YOdxNLuRHZ3Eo21bAQhtKTX+dQUgjE/Ttk8sAKEtpYZft8UCBF5epEfmGTpz7By+o2qh2CWYEE1wnnSqVgDCVJT/6XLPAIIjjI6wOkokyYpkRwACHpFbQP4CIVr5NZw/juRYog2Oz0r8BCg4IiuaYLexZ8krADjMShkMzDoq1+WMewEI0/FOAQjT0b4AhOXRfosECM5x89AknnCOV7gXQHAO37JCFH5xbpRSl+xlqlYAwlSUbwYIcjII8+MJUaYACPJgMN6Rvpq3j7dimUC2PHwlZwDQAGjInoi/Ih0tYCqS4HtAA5CoNzzaJdd+AQjT8U4BCNPRvgCE5dF+iwQIlhHUfZD0SHYp68qUr2xlcsxHASRZ7mSBlCVxqlYAwlSUbwYIEiXZaxC1MAIgWKKyHAUQRDXNeiVGSZ8ie6hMl7LmSXZjycKyg6RIQMZmRYcKQJiOF7q+uQCErhQb7/oCEMaj5bwnbZEAIfYg2H/gb4pdiNj6LiUtI5UNZFIrS4tLgU/VCkCYivLNAIFBl43SkoCMmZYOLDHIcCk9t2yIgKWMg9LravXCKf4HTkWvLG3JcS+7magE3pM5TwTB5kfpUEsEYbr5H/LmAhCGUG/YvQUgDKNfl7u3SIAgFWyEgnl7/vaZneN2lDv1wDArmNKnwFIXAs+7tgCEeRRa3Pf5JkU8gh/84JP4P3hJsTIRKCcY6umFXasFL9X/x39xUsbz4jvX5ydo6nzbZtRliaENlRZzTQEIi6Frm6cWgNCGSuNcs0UChHFIs5ynFICwHDo3vaXkQZiO9iUPwnS0L3kQpqN9yYMwAe1LJsUJiH7lK0smxeloXyII09G+RBCmo32JICyP9iWCsDxaN76pRBCmm4ASQZiO9iWCMB3tSwRhOtqXCMIEtC8RhAmIXiII0xH9yjeXCMJ0U1AiCNPRvkQQlkf7jQjCd7/73eW9deQ3rbM30nVj2sikG/w4KYmlJl7HBs1PvUl1CN0K7YdQb9i96xx9Wne+X2fa47p1ov8GQBB2Wtcmz319V/k6jWOdwQ061+terBPd9dWpBNkO17U5gnm9611vLbtfP92xjgNwhPX617/+OnZ943TOuoLj73znOxs5R9ZxAtbJKSwAYWIOKwBhugkoAGE62heAMB3t68d5p+tF/zcXgNCfdl3vLAChK8VGvr4AhJEJ2uFxBSB0INbIlxaAMDJBOzyuAIQOxFrApSWCsACibvbIssSwZILXXleWGKajfVlimI72ZYlhOtqXCMLyaN8YQXAqQGEaKYgPPvjgVMde0RmbK+SLlyZWO+mkk1KueYhINTq7S/fee+9UBS9vSt0+9KEPTR+roqgGguvydLN9ht4EEI499thqp512qu585ztX3/zmN1NaZTUarLu94Q1vqPbbb780HsVx3C/1suI5sSZN+b761a+uDjvssLQJzxilbZZ217XoIcWuvQ9oct3rXrdP16s8gvD1r399g/aPfexjU0pfTRXK973vfelv/dl///1TcSCfv+td70pjUT545513Tn194xvfWF122WUbdSisl0r7q8CQSpcamqgfIP1v35YDBGmFv/jFL1b3u9/9qvvc5z4pLfFHPvKR6i53uUtKP2zulUvW8I6iRVO1pgiCvp999tmpWqMmTbdqjLe4xS1S2mXln/fdd9/qgx/8YPXe9743ZelEv1133XVjGO9///tTgTCyo0nTbI4Ub8Iz6P6jH/0o8b9n9205QDjzzDMTbbfffvuN/px//vnVtttuu7FXgYy+6U1vusor1SgxLj+yO5KN7bbbbuMaY9Hna13rWqmOyQ9/+MPq9a9/fbr2qU99aq9NqnkEwVx4pjoW3nHBBRdUCmdpaJwXtupLs7HuywHCS1/60qRfrnGNayR+l657VfeHNEUQbFLHPwceeGDSScccc0xlE6x6Ik5s4Pf6XJx++umpEi4Zr/P+WPTd7Dk5QJBC/6tf/WqyS3QxGSCDt7rVrZKOWbW9FvUIArq/+c1vTsN9/OMfn4q5aWrB3OlOd6pufetbpzLx9MYuu+xS7bjjjhukUTGWzG6zzTbVPvvsk+QFLdSLeeQjH5kKx4Ud9+zICNtljhoBAiJTkJ/97GeTsSG0OqvzOo5pFLFR2pYh1jEG6SlPeUoqfMR4qqaouVdeeylq3/a2tyVDpqyuCneuY3Clrh3ScoAA4CiKc+1rX7t61rOelYALAX7yk59c3ete90pGn2IDDg444IAEIhDbeI1B+8Y3vpHqNxAYBoEh9L++n3XWWQkkKOxj7EceeWQaS5+WAwTKWtW/iy66KOXv924NOABGGFrje+tb35rqAqgl8eIXvzhNvnLEQMXHP/7xpKhUtXQUzveMwiGHHJJAk2uMRzGrvfbaK81n31YHCJj43HPPTVUz8QelzsCimb4973nPS3wCKOIltQ6mPAHRBBD0mwJCo6233joJGpCGz/EZYSWoBNF40F0hJ/x1wxveMJFRzQbzZ240PGjOjjvuuESHZzzjGWmDG+G9+c1vXu2+++69yF8HCJQBHtRvyl1paWO5+OKL0++oOskwy71xzjnnVFtttVV1z3veMwEYRg3fMf74mRyHgcOTilGRI4WsyL1qld/73vfSZ0Bn15YDBPJKoXsnOeRoeBcjhO4Btrq+Z1HX1wECnfaIRzwigWI0BJIBrJve9KYJpJNjOk5SMWNUI+Z2t7tdGheQRU8ts+UAwdxz8PDv85///KSvd9tttySbgAA9gdeM2XUcJbJNj6p6itf6Okh9xp0DhJe97GUJVJJFckVm8Tx5i9oqfd6zqHvqAEHBt/ve975pwzQdT4+QZXqTLOMdNKe7FR4EJgAe16M/O80W0LlqwJibd77znclRPOWUU9L4r7jiigoQ6SNDjQCBd4/BeT2ITsnoMKFmlKJmPWXHK8LoOs9DhPxf/vKX/xRqM4mYz8AYXwrLZ5iPsR3ScoBw9NFHJ0Oo/5T4t771rdQv3ivlqX888NNOOy313/ff//73k1cHCAVAcK0xu/7www9PzIfwmI8QRbSBZ06h9kFoTREEipch4snd8Y533AAIrqVYTDjEfOMb3zjREYrXeL8iCpdccknqc0Qf9BWdgR9G2ZjRg/ICOsYCCOiIBsAhRqc4RG/UvPBuQAGtKE6KsY6Yh8x/33tzgCBShs/RHdBh2BlGQgYIUZrmBbhhWM3NV77ylRRhE5UhzAEQPFtpcVECsgEoM6To4XkaQwsohzx1HUcdIJhPBlVETmTvrne9a3X729++OuGEE1K/AyDEO84444xkjFWZJCMUEG9F+9jHPpaUFDpovgM+zC/wg194l5wFcga0dm05QOB987rJskhY9AXfHHHEERsOR9f3LOr6HCDQZfQBQM8Z4ogACirJigoClfQNuWDAREuAdoo9InqL6mv+3KYIgj7qDx2N78kuj5yMih4BQYAjoyWyTJ9wkDhWDFNeV2SRY6kDBHobgKVj2BEROfImiiZ6SdetWiSnDhAAYA4qGyuCw+jrv6gfeQAoGX1yCsjR5Rq9w56RRVEEegXox1eXX3559ZnPfKb61Kc+le4FTDnDdG/X1ggQKDxKiwLi7eg0gxMAAWKBYgIgMDTHH398Eg5h+UMPPTSFeOqhwQAIYXwNhBANCW/HYHOAQKFhEIaUIr/73e9eXXjhhek375+iE5JhBIwNSub9ugaoiD4SDMz1oAc9aAMAUfpQ36te9aoNgEBw0GkMgMCDo3wwi+cZiwZdYiYon9eGdgCN0Dfm0YyXoXAdZB8Axpx4DmVrLATpvPPOS4oYY44FEPRBRIURARYBF4YGvXhXjBfwgvm9n1cNcE7VcoBgyYAQ3va2t02/LUXxTBjHF73oRRv9R1fj4f0r60y5MvTAWwAEQJMMoTFQJgIBlArXh8cNCFLAPIQ+rQ4QKAm8g8aiG8KO+tAGIKhKSeFTRpoIFKUiulYHCBQzTx+v4z3GAa+Roa4tBwiicyJ8jBJ+BQooPGCTh7VqrQkgmEuOhGqxHCzAS98BewYWgAQYjQu4J6sUdyzZLmuM8wCCJQXOkX5x5sgz/cgzBSAAUTwD6LAFAMUyQU4dIADedAyAQOeJSAcv0aH0HVuwSq0OEPCGfnLKOVDkFbBHb6CeA3fqqacmOyl6QP7Y3tD1xou1WEpUAAAczElEQVSP6CCAgV1lH8JRXAhAwNgUG2amDHnkQu3C1kAB46gFQKBQTJqwYACKPCoQAIFiEN6HUIU4PXPoGlEdICCMsDrlRhkjkPcx/sKA+gzQiAIAPTwX6/AQGeTGQ6wDBF4UA7HHHnukkCqa8JwYOd6TcTMeJqZPyyMImFufGVqgIEoK+5tSAXKM15xYQhCy934t1ssZC166PgstEWDeAQUm7GbMwueMnFD4WACBwUJTSoRyEcoWfqds8JG5xjuACgNM+awSQBAFQisgjNEWMSKU5t884W3zTvnbp+Baih89hfrqAAFt3UvQ0V5IFm3MFUWAPgGiyVqfVgcIwtbArxA3RamvIh1tAAJPi9dB4QNN+I9XFp6X+TKnFM+ll16alJNlKzRBM0qra8sBgucBYzxRgJKhBaTIFS981VoTQKDT7PlgUHnVvFceH+BGJwEIDCo5dK1lGn8vu80DCAyNCFQsrdGL5MF+IWvg9Cp9xFsHcOxBcP2yWh0g8JLxo0gMsE5f85TRnTxYJtlzzz2X1bVW76kDBDoCCKYDOIScUnLFHtnzw95w2EVryATbTO4tS+Ex4Nw9nAFLmnQVQMF5EcFyPd0gKkgndG2NEQSoBFNrEJh1aoZL04lISqSDogW8Cb95hDwY9+eNcsRokBKPOxqjBv0NaXWAQBEjROxr0EeCiOB1j8h7GSwGmBHlNUJhsWEEKiXMxk2ICT3CMxCMq+cK41BewEZsLuk6jhwgUDCMuOfqI/CiQZlAVwgig8TTAs4oVIaKIhfK1HhgaE0pARMYivHwbAYEIgXMCJgwet9W34MgisQL1yh6PCGkGs288zqtjUXobCg47Ntv99UjCPgdPfGoZgkHmBHCBHDwCg+KcuLpij4RRv0HcoADPKQRWEtR5sS+G3QAlPAJYQUSvBvABF77tnyTIj7AD/Y0POEJT0iPtdyAJ4DLesNPAJAIW1xnXswbGRKhiqbPDDiFRfkKZxoDhYa3+iQMygECowNwoWfwvTVT8oj2q9ZygEC/UcbmnGz6m2wDVuiEbtbpRZpEpugVyj3ke5njawIIdDcwSR+SBTovlhXwDuPkM7rf5+bfkiawDEwus+V7EPCLyKSlNDoOqBSlYSTpn2VHaObRog4Q6AW2RgPAwjaKauu/ZUw8JKrD6cA/9A09zpmlb2MZEwigY9gJ/MY5AfbNGTmNJed5/at/3zoPQl7zvuklU53vHHLMcUjxDEqeQh1i5JryIHQ9pxxZMPN1wDH6N4+Z+hxznIpP8rEMzYOA7pR/1/k3fj9Dszg2HXMcQtvNivjk8t9GH2zGO015EIY+cx6vjvl922OOqzimNvqlTb+H8NqQuWg65pj3Zaq+tRlXn77V7+GYRORp3rjbzONmfW4NENoMfKprhgCEqfoc7y2JkqabgaEAYbqe//83lzwI081AW4AwXQ9nv7kNQFjFfkefSh6E5c1OAQjLo3XjmwpAmG4CCkCYjvYlk+J0tC8AYTrae3OfCMJUPS4AYSrKX/neAhCmm4ACEKajfQEI09G+AITpaF8AwgS0z5cY7J6PRE2O5NjkZCdobCQUomIcbOboun489vAKQBibou2flwMEfGPXs70ckVAoTl/gE3PliKwNpE076/GY62wGstEr+M06oO88k3LWXGfTX7115YWyxNB+rse+smmJQV4Lx+7olUXlBcCz9r30OVIdNCgAYWxu6Pa8EkHoRq/BV+cAwe5zJxmcMnDEzDE0O4YdCfS/Ha8Mgd2ddmxPmc2vq1EYTKyRH9Bnk+LIXej9uBwg2Ikul4cz3XYJO+7ohIvjfwy8kyuAp+OuPsvPVzvK62igDUROJ8h9AAg4WeCEjF3GsZNYspl6/gCg1f12IbdtBSC0pdT41+UAQSpi+SfMP5lwUqjvyaam3jp6aEe7/BROJDkr37cVgNCXcuPcVwDCOHRs/ZQmgOBsriNSjvtR8s5rU/COoEVuAUdJoP4h+fBbd3LGhQUgDKVg//ubAILzxvITOHobZ6uBAbkLHCOV4c+cAQDOXUfzLABD5MARMMZCrQzHBd3nqCNejBwiea8dd3LUz7HItq0AhLaUGv+6OkAw546iOaIGEDLiDLrjw87i009yxMj74VpHi517B0AluXEEW84ShgOQlG/C/zIvOqbsmCq+wU+O8gEefhy75tzgWdkbgViJqySB2+z4ZAEI4/NDlycWgNCFWiNcmwMEWeHiXLWsZoQZQJDTQR6ByLtAEIEIZ7ynagUgTEX5q+ZB0AsG3tlu3n148kAAgODcuuNFEdr1OUUc+QUAAueYnScXZZC4JDICygsSyZJ4l5ooRc53Il08z7atAIS2lBr/ujpAkG9ErgiOhgyhHBLLR3hBYjM5Pxh4WVideZcASspi+QPwgzwzAKQ8LXhM8iHXyEsgQZGsmOplyMrofs92vl1OGmBE9EK2Tg2w4ADJ2zKrFYAwPj90eWIBCF2oNcK1OUAABihbqJ7XBln7jABbD5Y4SVMUhrcYyXFG6ErnRxSA0Jlko93QFEGwbEDBU7wS3gRAkMSH8QYeNAlYJMOJXAaiBJIq4S9ZLCVvkawIsKDUKW7LXpE4yhp17JOJARWAMNrULvxBdYAAVIoUiAJFUSN6xxzjF8tKjILU45LfiATQRZJpybCID+x/ATglxBF5wGuim5pogwiBxFqSVIka+F5aeBELfCifP+dHgjjRLcups/ZXFYCwcPbY9AUFICyZ/rP2IFj7lWmKYgYQZNhSqZIAymoGgRPqyEG/5G6n1xWAMAXV//87Z+1BkCmTgefZAZEiCDxDmckUWpKeWklZewY00SreXpQkFhmQvvqTn/xkSknLe+T14UOeo8Zo5OvIBSBMxwtd35xnUrQEZTlJxID3LhMn/hFxEgGIZSu1U2TdBBCkYpZyXFZTWVtloRXVtGSA54BTkSzgEpBwL9CBl0SnAFjLFiIVkZZXFKsAhK6zudzrC0BYLr3TGl+kf/bqqJDlb6l9pcCFwK3lEWy55xlmAh1V45bc5Y3XFYAwFeV/GiDY1Aos8vpEEdTssOnMkhSDDhjwFoVzpT2NFMByweO/SDlsTVkkwRqzjYlSH8dmRbvcNV5gpMUOCqgjEoW32lClLDG0odJirsk3KTotRa/w+gE/82xJQF0U+sm8qoDJkOMvgFMk05yLCqiIafOhKBQexDc2rlqKEgEVlVKfRfQB7+BH+xdEsLwHUMB/9ibQefhzVisRhMXwRNunFoDQllIjXVcyKY5EyB6P2ZJOMfQY/qS3FIAwHflLJsXpaF8yKS6P9iVR0vJo3fimEkGYbgJKoqTpaF8SJU1H+xJBmI723lwiCEumf4kgLJngtdeVCMJ0tC8RhOloXyII09G+RBCWR/sSQVgerUsEYWJa568vEYTpJqREEKajfYkgTEf7tY0gSCG7rs2GsKlTJq8r7Yb2u9B+KAX7319o3592Q+8stB9Kwf73F9r3p13XOzciCDJ2rWtzzMcu33Vs9boR69h/+QKcvV7HZnd4nERYx/7H0bd17Pu6772Rr2DK49FD5lz0hkM1pJ7DkPcPvddRUEeR17EBN+gf+VNWfQwFIEw8QwUgTDcBBSBMR/sCEKajfQEI09G+AIQJaF8iCBMQ/cpXlgjCdLQvEYTpaF8iCNPRvkQQlkf7EkFYHq0b31QiCNNNQIkgTEf7EkGYjvYlgjAd7beICIJsXkoi25ew7bbbpjUTqWU1BUdi/UTmOfm/DVqmQhsdpRWVQS5v9eyGPB+pSKUFHWMdrymCcP7556esYze5yU1SdrMLL7yw2nPPPdPam+xm97znPdPfMppdfvnlaRxyo8e6nMxo55xzTkp7Kr2pMUrbLGuZrHmep0iL9XeV2q55zWv24rocIKC99L4yosmuFv3hscQcXOc610kpXaWLNnb9MkcPfvCDU653fZX1T6pp4/e5fO/S/soH7z7NGGKOe3W+qlLNgvoeBEVr8IE1wtgXIgOcubbeb+5jQ+wd7nCHlD1uqtYEEPTt0ksvTdkPNTTbcccd05zjCemW0V62xDPOOCNltMNX0uBGw+sy6aG1JhWzuZBr39HEs88+O2X0VHFUUae+LY8g8Kzwg77gAw3fkMfYY+SImAx89SbVryqC5557buITKYKjCJXrVCAk63icPnD6Ay+SC/rA764tBwiyVqKvpq94Q6pqO+7vdre79Zavrv1qe30eQcAn6EY30id4f1X3dTUBhB/96EepIBTeRnMVJ80zHUR/0tcanSkDLZ52PbmO4ndtaTf0ujyCILupEuxor//49eKLL67oSTUqVmmvRQ4Q0J2+R1d8HuXg2VMVOWXHxE8yZcoITJ9HI7P48EY3ulH6znF/dnurrbZKpcHJU9hx9q3PRv7GCMITn/jE6mEPe1gSUHnDKVIKj2GRFlQtA1XHKELVEHVSiVu55hVIOvnkkzc2fyHAiSeeWJ1yyinJkGmPfvSjUx7xY445JhUdkc52SMsBAsIolIORFcuRCtdvtRgQM2ozvOENb0ipllVO0xcpdOXa1xBf3nyV0RgLTLf//vunvPrSoxIYufcBkXe+852pOEqflgMEtSEADgbepDLumtKulDcFTTlT8nKuG5c+EQ40VSQGcMF0ilABAWpOqApnbPvtt1/6bV723XffBICe/OQn9+l6uqcOEBQlUlL7UY96VHXsscdW6Ou9aHPSSScl/lGsaLvtttsQXqlnp2pNAEG/AUg0I2iMut/GgvfxMj54wQtekMr7EmjVGo0xgJd78YgKjtphhx2W5uw973lPovXjH//4lI7X/Kjo1zfddx0g4Hm8gO+NgXySQ/3C9xS5Jt0vkAL8Aj1khCFQS0CFQN+paukeKX01fC51L0Us9a/cFwAEkOMZD33oQztPYQ4Q8DslD4AxSIxOKFOg2bhWqdUBgn6qo4APyBaeV0UWcDYmAApYoEMAf7oU36MBpb3sDWs5QDCv6kfgZTVI8Lp+6hfDRE8A/nTG8ccfn+qOPOIRj0j8i89e8pKXbFpeeux5ywGCYlUKWuk/gHDggQcmOQPa6CIgYVVaDhCOPvroJEN4hCNFr6CzWi7kme45/PDDq0MOOSTZSlVj8YznuEblYnNH7/rbnJBdxePoXAA+6KV8fdfWCBAoNkac8YNeCC1lSJEwMOqUazpDmTCmFIzCIiZElbHcq1DO1CAMHqphJNzreUDIkJYDBEwrevC2t70tKUuEpxAxDKDC6CMu5WlcELMfCCzy6RuTYjwE+5WvfGUiur7zFk2UkqwRNVAIyiT2aTlAgNyBAEJKSYYnCyDwBCl0Rvm4446rVB7UP33SGCWCDBQAClEt0DwBcFGkCk3kjQfYGKexAALUS6not+qHaKspOqOULQOqWBbv1jUUTx9U24fOTffkAIHQAWjAsXkgoIwfXpVLX58BBDyCv0QWyATjbB4C/QMIPHX0NlbKlLEFDMgSYdcYWn/jyT6tDhCU/GVYARq8o29AiL95tgEQ4j34iYfiOnMFDIv+aSIJxuRZGoWrmBA5IwcAtfG7zviVUe/ampYYgBfgHVjHS96Bl/E0fbRKLQcI9BtwhedFlgAEDhYZo1foR3xBb3AAXEP/iEjmRbsWPc6mCAKHh04BEPCtv+k3RaPwfMgxIMRonX766WnuyUbwzaL7Hc+vAwR8xDACrmpbAAPmAv1FcdB3Sh2T0yQHCOSQ4RaRBNDR/UlPelKK3DDudD1bShbZI2MTESH7HA5OITnknJkT4JTjLiKnJgcA4tlsmAJfXdvMPQgMKgTiBQyq3xiLUtcxRA+AwEN3je+AA8ZS9TIDYRC0AAjRQeBAyJkSHjqBOUAIJK/gCSMq/KJqGq+H4hZ+QnBGMoANRUQpBvgBEAANBo8CZeD8MBQmsh4x4MGbqD6h1qY9CPpHKDEI46JhJH0TNsMchALzCEu5TtNnXiPmeN3rXrfBCxTuwQcfnIyAAkHGgJkIO892LIDghZQGRI/BVawLxRIAwXuF1o0FbX0+VcsBAn6w5MRo8pT8AAg8JvQ2xx/4wAdSd/E6A4t2DBvFyqBpDIG/jREvKvyEX4yVNxxRKn97viWHPq0OECgJAFbECTBmdPBGG4BgbOYslkkATcssQLSmv3QB2aFo8D8DiUeBPgqta2sCCOiNpvhSs9zjMzw1ZUn2prE1AQTOEQXPONE7wCbamWe0o+eAT4paRIauJKfLXmabBxAshwH1QG0YHrx21FFHpWgl3sAD9IqIIL0ipL2sVgcIQJloKaAieu2H3nnLW96SeEcUNpysZfVvs/c07UGwVIOOeIfuV8yLTbX8bqwAGSeQAy5qzK4C0KLIImsceSCAHiH7eJPDgC7mDPgLp7YrDRoBAhTM42BEoUhhD4TXMehSJ7QACDpIOVnL5CX5nDdFIGJ9ug4QKBTXmbwx1ofqAIGHxpgKnVsne/e7352ICiDwQrwXUyEccGBSCIJQoNCxuu5hbAEEoSteAHBBkBljXhRkzQgCFRQpBdqn5QBBn5QLxiAiOVFS2JisPxEEQIBi4Ynor3s0oMs+CuCOkgUEzIu+6l+UkCXcQojmlzIYCyAwuMLRvMD6umQ9goB3eKTAm7AyJTpVywGCcD++sdTEuBNKhj+8Z/QFNnkp+Ay41USQKEnr5gEQKCXGFF/hIzQWQRPZoWQ1tPcTZaK70qEOECgWPxSGfopMiHS0AQjGR85jqUDI2BwZq0bhijpRPGeeeWbiKTzHcAM9fSIgTQBBWBRtyCPAgk81OofCX6XWBBD0l8zy3OhL/GEujBXYMS7ySm6NEx8p+bzsNg8gxN4qDpwxcfiAGf+TD5Eq4yS79CidBBQtq9UBArBCn3N8AHMyS544sUAzcAbMr0rLAQKHSYSM3LIvnFHRSEs7frOpHEHfs13sFZtJr7DTbAX5tUxhqcE8kVHOKtsHjFpConfpn66tESBQFNALA8/gMPLQiw5TPDwTLYSYIQYAGFGhesoj1i+jQwEQhD8YvdhExSsbmminDhAQGCHDmwMOAAPv9RuSZ9AZLegYUzEIvLzYeKbPnkmxP/vZz05KkGdOEQIIJpLQAEGEhQLrKyA5QGD4GR9KmPdpM6WG4dGXMKKxfSKxzg9NYhobA30upKl/PtM/yp4AGYc1rDCEkKrISR8PMOa1vgeBp83DZpgwKOWoYWrgi7fpM7RmnK3N8xinanWA4G/ANow3VI9H8EEYUAafUaQY8U1s3LKvheKsA4Q99tgj8Zo9Oq7Fe/42j5a6CDRF/YpXvKL3GnQdIOAJ/TfnaA/YaJQGpdm0xIDv8a17ySS+QQc8JuIUjRIzr3g19vT4Hy14yMK4XVsOEDwLX9IzGiML1BqP0DH6rlLLAQJepoA5DGiHj3hwIlL2HlDw5JOuwAPoRrkve3kBDWcBBLoHHzBYeF2j7+kgn9NHwvb4hRFmDxg8DuQyN2TWAQIAwN4AL3hFP0W7yS0j6jvyuSotBwj0NWeNzOonGdDoafyCP/AWAG/JOJaK6SYAwX4WEUz6njNAJxi77zjFnEXvFOGvb6RuS4/WxxwxlRfN2lDjO8IxxaazIXkQKCZGtOtGSeOFXIX8czDUlviua1pi8Jlntl2yIAiEltGJFv0DZhaZLbBPHoRVOdo59JgjviG0Xeff+BmNrjyX81VTHgTP7ausAQTy3STDACtAHDzJwAcY6cLvcW2bY450Dr6OvR193rOoe9rmQaC8OVqrNIY2xxzbzG9stlwUjWc9N9+kSNfhz9hz5T7AAR8PXb4ee2x9jjm6h84IubYcIUJlbLkujf1QMW46jky3tSX5eFsDhLEJNebzhgCEMfvR51mrYiz79N09fQBC33eNfd9QgDB2f7o+ryRK6kqx8a5vCxDGe+N4T2oDEMZ72/hPKomSxqfprCcWgLA8Wje+qQCE6SagAITpaN8mgjBd7+a/uQCE+TRa1BUFICyKsj/93AIQlkfrAhAmpnX++gIQppuQAhCmo32JIExH+z5LDNP1tqoKQJiS+jP2IEzcpU6vL0sMncg16sVliWFUcnZ6WIkgdCLXqBeXCMKo5Nz0YVskQJCMRP4Fme/sYvVjY4edn46+2K0Lydnd7cTDlK0sMUxH/TyCYOevY62O99lB73SOHcYSA/ltJzDl5G+nBPKTAXauO8Hherv9nTLRnIhwBNGRrDj54GxzfB8UsEPZT9tWAEJbSo1/XQ4QnDwydzY944s4DTPWmx09lNTMkTWnj4ak6C4RhLFmpftzSgShO80G35FvUnR219ltR14cwbHLHGBwbNH/lLvPAAUZuKY8QlUAwuDp7/2AHCAAko6fUcbAgSNHjkw53uU44m677ZYS3ACeju3mZ/MdsbVr3VE9YANfOW4rL4Qz/pKVRDYzu4zrp0scgwMenGFu2wpAaEup8a+rAwTLJfRLpByWcMuRaXyjhoXTIZJvyYXAQMgk6+im+XekUBROYiX86EQSPnC9I2rAqHwxjgdLI+wIqt36gKhkOJ6h5of+4Clg1LM3O1lTAML4/ND2iQUgtKXUiNflAEFuBQqe0qXU/U2A5QFwtpSgafIHUPKRkGXELrV+VAEIrUk1+oVNAMFn+MWZYgqXsafonVeWHCaMOoXtM5EATRYzR60kOAEK5BiQnITRkANC1kE5OaJoivwPsurVGx4V/WrbCkBoS6nxr6sDBNEh+USAQFlMHf9zrEwqbcZfinS6RgRACu+ddtopZdbEG3IiyK0isil6JarEuZG/Qg4CSegk3ZJ3Qv4ZuUQcraa3AAG86l141bvwlyRfnKFZrQCE8fmh7RMLQGhLqRGvywGC9MSSIUlsJOGH8+qUr88j/7zXC/lS4pFUZsQutX5UAQitSTX6hU0AQbISCl6iMAY8AIJ0xDJo1s8iW0aINLnAgtCvZ7pGpAqwkDmRcpcoCWBlRDTXRKbCGFgBCKNP8cIeWAcIjL6kNBwTNRboI4YdmJQQjscPzEmeZflBBkX592XJE1WI1LoynUquJBGXSJLogiUFn9NVnB1ZVD0XuPAu4AAfAgZ+OECyeiogNysHQAEIC2OLuQ8uAGEuica/oGmJQZZH2aisGRMYyldubgpaelMKWoY7IWOIfqpWAMJUlK+SMa+H+WOJQWZPStr/0pUy9JajKHuFj/BUVEzUe8lJXAsMaHhMVj1RA9fKhCaJFYBgL4wmyVCeRbIAhOl4oeub6wDBvgNzx1DLNMhwiwzw+GWZlHZcbRqJeyxpyrgJIFh6siT1/9q7wxWEYRgIwO//1vKJExkKM8bFyhX2Q1hauXZddkkv9h8fM+oZKI5HyZYMOvVWeVPCCluZcQJAWw6MWgh+s+V4UDy0RuMgvDub590fB+E8rO8j7R0EkrbkTk2GDdnDpsqVTVuMDo3rofaQ0kWfbHEQ5tDfOwhoWbQt9kAtDBLLNnPVCm3K2ASS3RQQvfRRvRrpZDaP1RB9pQllyYPBYvnSE8oSgtDY7pkrDoY8hqMtIYajSPXft09SxAQIO3EWzbt5JqWMSaK4KlzgZU4unZNAwl0iI4lc+Qr2Is6FMIE6KvYqbIG+5Dio+8LxUP2Wo+GSF2NdyYeRN0OWFwNmzbEPg9A/75/2GAfhUwQL9lFSLIDWZJJjjk1AFrqJg1AArckkxxybgCx0k2OOBdCKJn95zLGIxYhZGIQR2K+DRihpDvsIJc1hnxyEOezDIAxgHwZhAPTbkGEQ5rAPgzCHfRiEOezDIJyHfRiE87B+OlIYhLkJCIMwh30YhDnswyDMYb8sg+BFtWqbKjvagZdkyVcltDv6/3YfEq+2o37fHqu7fxtltQxq93+p9EdUZ0uUrNhP2ijj7CTHqm1l7L2ktF8rhXx0LTi27mjoig32rlXW/gV1mT4SR8O09wAAAABJRU5ErkJggg==;imageBackground=#99FF99;strokeWidth=3;imageBorder=#3333FF;" parent="1" vertex="1">
          <mxGeometry x="660" y="230" width="170" height="55.24" as="geometry" />
        </mxCell>
        <mxCell id="NUWmxPzejjJAQNzyafJl-40" value="HDB Resale Price.CSV" style="text;html=1;strokeColor=none;fillColor=none;align=center;verticalAlign=middle;whiteSpace=wrap;rounded=0;fontSize=13;" parent="1" vertex="1">
          <mxGeometry x="590" y="298.43" width="310" height="20" as="geometry" />
        </mxCell>
        <mxCell id="NUWmxPzejjJAQNzyafJl-41" value="CLOUD" style="text;html=1;strokeColor=none;fillColor=none;align=center;verticalAlign=middle;whiteSpace=wrap;rounded=0;fontSize=13;" parent="1" vertex="1">
          <mxGeometry x="332.5" y="20" width="40" height="20" as="geometry" />
        </mxCell>
        <mxCell id="NUWmxPzejjJAQNzyafJl-42" value="EXTERNAL" style="text;html=1;strokeColor=none;fillColor=none;align=center;verticalAlign=middle;whiteSpace=wrap;rounded=0;fontSize=13;" parent="1" vertex="1">
          <mxGeometry x="630" y="20" width="40" height="20" as="geometry" />
        </mxCell>
        <mxCell id="s6p_m3z0p2AJZqIpgTTg-1" value="" style="shape=image;imageAspect=0;aspect=fixed;verticalLabelPosition=bottom;verticalAlign=top;image=https://lh3.googleusercontent.com/8QoomAPvN9WKJyAFxIz1dg9VQzApP_fkdpdgGboODX-BPrtJ-3c_7QteGBs5w7kkKWZ2zA=s113;" vertex="1" parent="1">
          <mxGeometry x="373" y="263.96" width="51.78" height="38.95" as="geometry" />
        </mxCell>
        <mxCell id="s6p_m3z0p2AJZqIpgTTg-3" value="Python" style="text;html=1;strokeColor=none;fillColor=none;align=center;verticalAlign=middle;whiteSpace=wrap;rounded=0;" vertex="1" parent="1">
          <mxGeometry x="406.57" y="373.13" width="140" height="20" as="geometry" />
        </mxCell>
        <mxCell id="s6p_m3z0p2AJZqIpgTTg-11" value="" style="endArrow=classic;html=1;entryX=0.09;entryY=1.105;entryDx=0;entryDy=0;entryPerimeter=0;exitX=0;exitY=1;exitDx=0;exitDy=0;" edge="1" parent="1" source="NUWmxPzejjJAQNzyafJl-22" target="NUWmxPzejjJAQNzyafJl-23">
          <mxGeometry width="50" height="50" relative="1" as="geometry">
            <mxPoint x="400" y="230" as="sourcePoint" />
            <mxPoint x="361.78" y="241.57" as="targetPoint" />
          </mxGeometry>
        </mxCell>
        <mxCell id="s6p_m3z0p2AJZqIpgTTg-15" value="" style="ellipse;whiteSpace=wrap;html=1;aspect=fixed;" vertex="1" parent="1">
          <mxGeometry x="440" y="300" width="73.13" height="73.13" as="geometry" />
        </mxCell>
        <mxCell id="s6p_m3z0p2AJZqIpgTTg-14" value="" style="shape=image;verticalLabelPosition=bottom;labelBackgroundColor=#ffffff;verticalAlign=top;aspect=fixed;imageAspect=0;image=https://lh3.googleusercontent.com/Sh-pZWfoeJdedEzUaPJB4LUV6ykjGlUaysybvCaZ5kzi4rR5WPBgx4Y5uZBS8TzrZWddktE=s170;" vertex="1" parent="1">
          <mxGeometry x="450.65" y="323.76" width="51.83" height="25.61" as="geometry" />
        </mxCell>
        <mxCell id="s6p_m3z0p2AJZqIpgTTg-16" value="PixieDust" style="text;html=1;strokeColor=none;fillColor=none;align=center;verticalAlign=middle;whiteSpace=wrap;rounded=0;" vertex="1" parent="1">
          <mxGeometry x="310.65000000000003" y="303.76" width="140" height="20" as="geometry" />
        </mxCell>
        <mxCell id="s6p_m3z0p2AJZqIpgTTg-18" value="" style="endArrow=classic;html=1;entryX=0.881;entryY=1.295;entryDx=0;entryDy=0;entryPerimeter=0;" edge="1" parent="1" target="s6p_m3z0p2AJZqIpgTTg-16">
          <mxGeometry width="50" height="50" relative="1" as="geometry">
            <mxPoint x="404.49" y="302.90999999999997" as="sourcePoint" />
            <mxPoint x="422.49" y="339.90999999999997" as="targetPoint" />
            <Array as="points">
              <mxPoint x="404.98" y="303.03999999999996" />
              <mxPoint x="412.49" y="319.90999999999997" />
            </Array>
          </mxGeometry>
        </mxCell>
      </root>
    </mxGraphModel>
  </diagram>
</mxfile>
